<svg width="2562" height="16381" viewBox="0 0 2562 16381" fill="none" xmlns="http://www.w3.org/2000/svg">
<g opacity="0.1">
<path d="M2486.66 9221.35C2487.26 9221.35 2487.71 9221.06 2488.01 9220.61C2623.06 8948.25 2569.43 8620.92 2354.29 8405.79C2243.89 8295.38 2104.05 8225.91 1949.72 8205C1800.33 8184.68 1645.7 8213.21 1514.38 8285.22C1513.63 8285.67 1513.33 8286.57 1513.78 8287.17C1514.23 8287.91 1515.12 8288.21 1515.72 8287.76C1788.22 8138.51 2132.29 8187.82 2352.2 8407.88C2566.44 8622.12 2619.93 8948.1 2485.32 9219.26C2485.02 9220.01 2485.32 9220.91 2485.91 9221.2C2486.21 9221.2 2486.51 9221.35 2486.66 9221.35Z" fill="white"/>
<path d="M2368.64 9391.22C2368.94 9391.22 2369.38 9391.07 2369.68 9390.77C2371.77 9388.83 2373.72 9386.74 2375.81 9384.8C2491.44 9269.16 2548.06 9108.41 2535.37 8932.12C2522.67 8755.98 2441.99 8585.21 2308.43 8451.65C2176.51 8319.73 2009.18 8239.21 1837.23 8224.87C1664.37 8210.37 1503.47 8264.46 1383.8 8376.95C1383.21 8377.55 1383.21 8378.45 1383.8 8379.04C1384.4 8379.64 1385.3 8379.64 1385.89 8379.04C1630.16 8149.12 2034.43 8181.84 2306.34 8453.74C2439.45 8586.86 2519.68 8756.87 2532.53 8932.27C2545.23 9107.66 2488.9 9267.67 2373.87 9382.7C2371.77 9384.8 2369.83 9386.74 2367.74 9388.68C2367.14 9389.28 2367.14 9390.17 2367.74 9390.77C2367.89 9391.07 2368.34 9391.22 2368.64 9391.22Z" fill="white"/>
<path d="M2330.99 9425.43C2331.29 9425.43 2331.59 9425.28 2331.88 9425.13C2343.24 9416.02 2354.29 9406.31 2364.6 9395.85C2566.14 9194.31 2505.64 8806.02 2229.7 8530.08C1953.91 8254.15 1565.47 8193.64 1363.93 8395.18C1353.62 8405.49 1343.76 8416.54 1334.65 8427.9C1334.2 8428.49 1334.2 8429.39 1334.95 8429.99C1335.55 8430.44 1336.44 8430.44 1337.04 8429.69C1346 8418.33 1355.71 8407.43 1366.02 8397.12C1566.37 8196.78 1952.86 8257.28 2227.6 8532.03C2502.35 8806.77 2562.85 9193.26 2362.51 9393.61C2352.2 9403.92 2341.3 9413.63 2329.94 9422.59C2329.35 9423.04 2329.2 9424.09 2329.64 9424.68C2330.09 9425.28 2330.54 9425.43 2330.99 9425.43Z" fill="white"/>
<path d="M2243.74 9499.09C2244.04 9499.09 2244.19 9499.09 2244.49 9498.94C2268.39 9486.54 2290.05 9470.7 2308.73 9452.03C2473.07 9287.69 2382.23 8929.58 2106.44 8653.79C1972.88 8520.23 1816.46 8425.66 1665.72 8387.41C1514.82 8349.02 1387.84 8371.88 1308.06 8451.51C1289.38 8470.18 1273.55 8491.84 1261.15 8515.75C1260.7 8516.49 1261 8517.39 1261.74 8517.69C1262.49 8518.14 1263.39 8517.84 1263.69 8517.09C1275.94 8493.34 1291.62 8471.97 1310 8453.6C1388.88 8374.71 1514.97 8352.16 1664.82 8390.25C1814.97 8428.35 1970.94 8522.77 2104.2 8655.88C2378.95 8930.63 2469.63 9286.79 2306.49 9449.94C2287.96 9468.46 2266.6 9484 2242.99 9496.25C2242.25 9496.7 2241.95 9497.44 2242.4 9498.19C2242.69 9498.79 2243.14 9499.09 2243.74 9499.09Z" fill="white"/>
<path d="M2120.93 9595.75C2121.08 9595.75 2121.08 9595.75 2121.23 9595.75C2157.54 9588.43 2187.72 9573.04 2210.72 9549.88C2272.42 9488.18 2278.25 9378.07 2227.16 9239.88C2176.06 9101.98 2074.47 8952.59 1941.06 8819.17C1807.5 8685.61 1658.1 8584.02 1520.35 8533.08C1382.16 8481.98 1272.05 8487.81 1210.35 8549.51C1187.34 8572.52 1171.81 8602.7 1164.48 8639C1164.34 8639.75 1164.78 8640.64 1165.68 8640.79C1166.43 8640.94 1167.32 8640.49 1167.47 8639.6C1174.64 8603.89 1189.88 8574.31 1212.44 8551.6C1273.25 8490.8 1382.31 8485.12 1519.46 8535.91C1656.9 8586.86 1806 8688.15 1939.12 8821.41C2072.38 8954.68 2173.67 9103.63 2224.62 9241.07C2275.41 9378.07 2269.73 9487.13 2208.93 9548.09C2186.22 9570.8 2156.64 9585.89 2120.93 9593.06C2120.19 9593.21 2119.59 9593.95 2119.74 9594.85C2119.59 9595.3 2120.19 9595.75 2120.93 9595.75Z" fill="white"/>
<path d="M2020.54 9690.46C2053.26 9690.46 2078.95 9681.65 2096.28 9664.32C2140.06 9620.55 2128.85 9527.32 2064.91 9401.83C2001.12 9276.78 1892.5 9134.4 1759.09 9000.99C1483.15 8725.05 1185.55 8573.86 1095.61 8663.8C1068.27 8691.14 1062.3 8739.24 1078.28 8802.74C1078.43 8803.49 1079.18 8804.08 1080.08 8803.78C1080.82 8803.64 1081.42 8802.74 1081.12 8801.99C1065.43 8739.54 1071.11 8692.48 1097.7 8665.89C1186.45 8577.15 1482.26 8728.34 1757 9003.08C1890.26 9136.35 1998.73 9278.42 2062.22 9403.17C2125.57 9527.47 2136.92 9619.5 2094.19 9662.23C2067.3 9689.12 2019.49 9694.65 1956 9678.36C1955.25 9678.21 1954.36 9678.66 1954.21 9679.41C1954.06 9680.16 1954.5 9681.05 1955.25 9681.2C1979.31 9687.48 2001.12 9690.46 2020.54 9690.46Z" fill="white"/>
<path d="M1945.09 9797.28C1957.04 9797.28 1966.31 9794.15 1972.58 9787.87C1998.43 9762.03 1970.34 9685.68 1893.4 9572.89C1816.91 9460.69 1701.27 9325.33 1567.86 9191.92C1434.45 9058.51 1299.09 8942.87 1186.9 8866.38C1074.1 8789.44 997.757 8761.35 971.911 8787.2C937.848 8821.26 998.056 8943.02 1133.11 9112.89C1133.56 9113.49 1134.61 9113.64 1135.2 9113.19C1135.8 9112.74 1135.95 9111.69 1135.5 9111.1C1003.43 8945.11 941.583 8821.86 974.003 8789.44C1025.55 8737.9 1291.03 8919.42 1565.77 9194.01C1840.51 9468.76 2022.03 9734.24 1970.34 9785.78C1937.92 9818.2 1814.67 9756.35 1648.69 9624.28C1648.09 9623.83 1647.04 9623.83 1646.59 9624.58C1646.15 9625.18 1646.15 9626.22 1646.89 9626.67C1785.53 9736.93 1892.06 9797.28 1945.09 9797.28Z" fill="white"/>
<path d="M1865.31 9893.35C1866.51 9893.35 1867.55 9893.05 1868.15 9892.3C1876.22 9884.23 1833.64 9827.76 1741.16 9724.83C1651.97 9625.33 1529.47 9497.14 1396.05 9363.73C1262.64 9230.32 1134.46 9107.81 1034.96 9018.62C932.022 8926.29 875.699 8883.56 867.482 8891.63C859.414 8899.7 901.993 8956.17 994.47 9059.11C1083.66 9158.61 1206.17 9286.79 1339.58 9420.2C1472.99 9553.62 1601.18 9676.12 1700.68 9765.31C1795.54 9850.47 1850.82 9893.35 1865.31 9893.35ZM871.067 8893.57C876.894 8893.57 904.234 8905.38 1033.16 9021.01C1132.51 9110.2 1260.7 9232.71 1394.11 9365.97C1527.52 9499.38 1650.03 9627.42 1739.07 9726.92C1869.8 9872.73 1867.85 9888.57 1866.21 9890.36C1864.57 9892 1848.58 9893.95 1702.77 9763.37C1603.42 9674.18 1475.23 9551.67 1341.82 9418.41C1208.41 9285 1085.9 9156.81 996.861 9057.46C866.137 8911.65 868.08 8895.81 869.872 8894.02C869.872 8893.72 870.32 8893.57 871.067 8893.57Z" fill="white"/>
<path d="M747.663 10720.4C854.334 10720.4 961.901 10696.2 1062 10646.6C1062.74 10646.3 1063.04 10645.4 1062.6 10644.7C1062.3 10643.9 1061.4 10643.6 1060.65 10644.1C789.495 10778.5 463.507 10725 249.27 10511C29.3555 10291 -20.0953 9946.98 129.154 9674.48C129.602 9673.73 129.303 9672.84 128.556 9672.54C127.809 9672.09 126.913 9672.39 126.614 9673.13C54.6044 9804.61 26.069 9959.23 46.3871 10108.5C67.3029 10262.8 136.773 10402.6 247.179 10513.1C383.131 10649 564.053 10720.4 747.663 10720.4Z" fill="white"/>
<path d="M821.317 10695.5C973.106 10695.5 1118.02 10642.6 1226.04 10534.6C1228.13 10532.5 1230.07 10530.5 1232.01 10528.4C1232.61 10527.8 1232.61 10526.9 1232.01 10526.3C1231.42 10525.8 1230.52 10525.8 1229.92 10526.3C1227.98 10528.4 1225.89 10530.4 1223.95 10532.5C986.402 10770 569.73 10739.7 294.986 10465.1C23.23 10193.3 -9.6377 9788.92 220.286 9544.65C220.884 9544.05 220.884 9543.16 220.286 9542.56C219.689 9541.96 218.793 9541.96 218.195 9542.56C105.698 9662.08 51.6161 9823.13 66.1078 9995.98C80.45 10167.9 160.975 10335.3 292.894 10467.2C443.936 10618.1 637.706 10695.5 821.317 10695.5Z" fill="white"/>
<path d="M926.195 10642.3C1046.91 10642.3 1157.02 10603.6 1237.39 10523.2C1247.7 10512.9 1257.56 10501.8 1266.67 10490.5C1267.12 10489.9 1267.12 10488.9 1266.38 10488.4C1265.78 10488 1264.73 10488 1264.28 10488.7C1255.32 10500.1 1245.46 10511 1235.3 10521.3C1034.96 10721.6 648.463 10661.1 373.72 10386.4C240.605 10253.2 153.207 10090.3 127.809 9927.41C102.412 9764.72 141.853 9621.74 238.812 9524.78C249.121 9514.47 260.027 9504.76 271.382 9495.8C271.979 9495.35 272.128 9494.31 271.68 9493.71C271.232 9493.11 270.186 9492.96 269.589 9493.41C258.234 9502.52 247.179 9512.23 236.87 9522.69C139.164 9620.4 99.424 9764.27 124.971 9927.86C150.518 10091.3 238.066 10254.9 371.628 10388.5C537.46 10554.3 744.078 10642.3 926.195 10642.3Z" fill="white"/>
<path d="M1071.26 10549.2C1160.3 10549.2 1237.99 10522.8 1293.42 10467.3C1312.09 10448.7 1327.93 10427 1340.33 10403.1C1340.78 10402.4 1340.48 10401.5 1339.73 10401.2C1338.98 10400.7 1338.09 10401 1337.79 10401.8C1325.54 10425.5 1309.85 10446.9 1291.47 10465.2C1128.33 10628.4 772.165 10537.7 497.421 10263C364.307 10129.8 269.888 9973.73 231.791 9823.58C193.695 9673.74 216.254 9547.79 295.136 9468.76C313.661 9450.24 335.025 9434.7 358.63 9422.45C359.377 9422 359.676 9421.25 359.228 9420.51C358.78 9419.76 357.884 9419.46 357.286 9419.91C333.382 9432.31 311.719 9448.14 293.045 9466.82C128.706 9631.16 219.54 9989.27 495.33 10265.1C677.746 10447.6 896.614 10549.2 1071.26 10549.2Z" fill="white"/>
<path d="M1249.49 10419.8C1308.06 10419.8 1356.91 10403.5 1391.27 10369.3C1414.28 10346.3 1429.82 10316.1 1437.14 10279.8C1437.29 10279.1 1436.84 10278.2 1435.94 10278C1435.2 10277.9 1434.3 10278.3 1434.15 10279.2C1426.98 10314.9 1411.74 10344.5 1389.18 10367.2C1263.24 10493.2 937.251 10372.2 662.507 10097.4C529.244 9964.16 427.951 9815.21 377.006 9677.77C326.211 9540.77 331.888 9431.71 392.693 9370.75C415.402 9348.04 444.983 9332.95 480.69 9325.78C481.437 9325.63 482.034 9324.89 481.884 9323.99C481.735 9323.24 480.988 9322.65 480.091 9322.79C443.788 9330.12 413.609 9345.5 390.602 9368.66C328.9 9430.36 323.074 9540.47 374.168 9678.66C425.262 9816.56 526.853 9965.96 660.266 10099.4C861.954 10300.9 1091.13 10419.8 1249.49 10419.8Z" fill="white"/>
<path d="M1430.86 10280.7C1462.68 10280.7 1488.23 10272.4 1505.86 10254.7C1533.5 10227.1 1539.33 10178.3 1522.74 10113.7C1522.59 10113 1521.7 10112.5 1520.95 10112.7C1520.2 10112.8 1519.75 10113.7 1519.9 10114.5C1536.34 10178 1530.66 10225.8 1503.77 10252.7C1486.59 10269.8 1461.49 10278.1 1430.41 10278.1C1301.04 10278.1 1066.03 10136.9 844.623 9915.46C711.359 9782.2 602.896 9640.12 539.402 9515.37C476.057 9391.07 464.703 9299.04 507.431 9256.31C534.024 9229.72 581.084 9224.04 643.533 9239.73C644.429 9239.88 645.176 9239.43 645.325 9238.69C645.475 9237.94 645.027 9237.04 644.28 9236.89C580.786 9220.91 532.679 9226.88 505.339 9254.22C461.566 9298 472.77 9391.22 536.713 9516.72C600.506 9641.76 709.118 9784.14 842.531 9917.55C1064.24 10139.6 1300.14 10280.7 1430.86 10280.7Z" fill="white"/>
<path d="M1601.92 10140.6C1613.88 10140.6 1623.14 10137.5 1629.41 10131.2C1663.48 10097.1 1603.27 9975.37 1468.21 9805.5C1467.76 9804.9 1466.72 9804.75 1466.12 9805.2C1465.52 9805.65 1465.37 9806.7 1465.82 9807.29C1597.89 9973.28 1659.74 10096.5 1627.32 10128.9C1621.35 10134.9 1612.68 10137.8 1601.48 10137.8C1514.82 10137.8 1278.78 9967.6 1035.55 9724.38C760.811 9449.63 579.292 9184.15 630.983 9132.61C663.403 9100.19 786.657 9162.04 952.639 9294.11C953.236 9294.56 954.133 9294.56 954.73 9293.81C955.178 9293.21 955.178 9292.17 954.431 9291.72C784.565 9156.66 662.955 9096.31 628.742 9130.52C602.897 9156.36 630.983 9232.71 707.924 9345.5C784.416 9457.7 900.051 9593.06 1033.46 9726.47C1166.88 9859.88 1302.23 9975.52 1414.43 10052C1499.74 10110.4 1564.43 10140.6 1601.92 10140.6Z" fill="white"/>
<path d="M1731 10027.8C1732.2 10027.8 1733.25 10027.5 1733.84 10026.8C1741.91 10018.7 1699.33 9962.22 1606.85 9859.28C1517.66 9759.78 1395.16 9631.6 1261.74 9498.19C1128.33 9364.77 1000.15 9242.27 900.647 9153.08C797.712 9060.75 741.24 9018.02 733.172 9026.09C725.105 9034.16 767.683 9090.63 860.161 9193.56C949.352 9293.06 1071.86 9421.25 1205.27 9554.66C1338.68 9688.07 1466.87 9810.58 1566.37 9899.77C1661.09 9984.78 1716.36 10027.8 1731 10027.8ZM736.608 9027.88C742.435 9027.88 769.775 9039.68 898.705 9155.32C998.055 9244.51 1126.24 9367.02 1259.65 9500.28C1393.07 9633.69 1515.57 9761.73 1604.61 9861.23C1735.34 10007 1733.39 10022.9 1731.75 10024.7C1730.11 10026.3 1714.12 10028.3 1568.31 9897.68C1468.96 9808.49 1340.78 9685.98 1207.36 9552.72C1073.95 9419.31 951.443 9291.12 862.402 9191.77C731.678 9045.96 733.62 9030.12 735.413 9028.33C735.563 9028.18 735.861 9027.88 736.608 9027.88Z" fill="white"/>
<path d="M1800.03 9960.13C1800.47 9960.13 1800.77 9959.98 1801.07 9959.68C1801.67 9959.09 1801.67 9958.19 1801.07 9957.59L803.537 8960.06C802.94 8959.46 802.044 8959.46 801.446 8960.06C800.848 8960.66 800.848 8961.55 801.446 8962.15L1798.98 9959.68C1799.28 9959.98 1799.58 9960.13 1800.03 9960.13Z" fill="white"/>
</g>
<g opacity="0.1">
<path d="M2486.66 14881.5C2487.26 14881.5 2487.71 14881.3 2488.01 14880.8C2623.06 14608.4 2569.43 14281.1 2354.29 14066C2243.89 13955.6 2104.05 13886.1 1949.72 13865.2C1800.33 13844.9 1645.7 13873.4 1514.38 13945.4C1513.63 13945.9 1513.33 13946.8 1513.78 13947.4C1514.23 13948.1 1515.12 13948.4 1515.72 13948C1788.22 13798.7 2132.29 13848 2352.2 14068.1C2566.44 14282.3 2619.93 14608.3 2485.32 14879.5C2485.02 14880.2 2485.32 14881.1 2485.91 14881.4C2486.21 14881.4 2486.51 14881.5 2486.66 14881.5Z" fill="white"/>
<path d="M2368.64 15051.4C2368.94 15051.4 2369.38 15051.3 2369.68 15051C2371.77 15049 2373.72 15046.9 2375.81 15045C2491.44 14929.4 2548.06 14768.6 2535.37 14592.3C2522.67 14416.2 2441.99 14245.4 2308.43 14111.8C2176.51 13979.9 2009.18 13899.4 1837.23 13885.1C1664.37 13870.6 1503.47 13924.7 1383.8 14037.1C1383.21 14037.7 1383.21 14038.6 1383.8 14039.2C1384.4 14039.8 1385.3 14039.8 1385.89 14039.2C1630.16 13809.3 2034.43 13842 2306.34 14113.9C2439.45 14247.1 2519.68 14417.1 2532.53 14592.5C2545.23 14767.9 2488.9 14927.9 2373.87 15042.9C2371.77 15045 2369.83 15046.9 2367.74 15048.9C2367.14 15049.5 2367.14 15050.4 2367.74 15051C2367.89 15051.3 2368.34 15051.4 2368.64 15051.4Z" fill="white"/>
<path d="M2330.99 15085.6C2331.29 15085.6 2331.59 15085.5 2331.88 15085.3C2343.24 15076.2 2354.29 15066.5 2364.6 15056C2566.14 14854.5 2505.64 14466.2 2229.7 14190.3C1953.91 13914.3 1565.47 13853.8 1363.93 14055.4C1353.62 14065.7 1343.76 14076.7 1334.65 14088.1C1334.2 14088.7 1334.2 14089.6 1334.95 14090.2C1335.55 14090.6 1336.44 14090.6 1337.04 14089.9C1346 14078.5 1355.71 14067.6 1366.02 14057.3C1566.37 13857 1952.86 13917.5 2227.6 14192.2C2502.35 14467 2562.85 14853.5 2362.51 15053.8C2352.2 15064.1 2341.3 15073.8 2329.94 15082.8C2329.35 15083.2 2329.2 15084.3 2329.64 15084.9C2330.09 15085.5 2330.54 15085.6 2330.99 15085.6Z" fill="white"/>
<path d="M2243.74 15159.3C2244.04 15159.3 2244.19 15159.3 2244.49 15159.1C2268.39 15146.7 2290.05 15130.9 2308.73 15112.2C2473.07 14947.9 2382.23 14589.8 2106.44 14314C1972.88 14180.4 1816.46 14085.9 1665.72 14047.6C1514.82 14009.2 1387.84 14032.1 1308.06 14111.7C1289.38 14130.4 1273.55 14152 1261.15 14175.9C1260.7 14176.7 1261 14177.6 1261.74 14177.9C1262.49 14178.3 1263.39 14178 1263.69 14177.3C1275.94 14153.5 1291.62 14132.2 1310 14113.8C1388.88 14034.9 1514.97 14012.4 1664.82 14050.4C1814.97 14088.5 1970.94 14183 2104.2 14316.1C2378.95 14590.8 2469.63 14947 2306.49 15110.1C2287.96 15128.7 2266.6 15144.2 2242.99 15156.4C2242.25 15156.9 2241.95 15157.6 2242.4 15158.4C2242.69 15159 2243.14 15159.3 2243.74 15159.3Z" fill="white"/>
<path d="M2120.93 15255.9C2121.08 15255.9 2121.08 15255.9 2121.23 15255.9C2157.54 15248.6 2187.72 15233.2 2210.72 15210.1C2272.42 15148.4 2278.25 15038.3 2227.16 14900.1C2176.06 14762.2 2074.47 14612.8 1941.06 14479.4C1807.5 14345.8 1658.1 14244.2 1520.35 14193.3C1382.16 14142.2 1272.05 14148 1210.35 14209.7C1187.34 14232.7 1171.81 14262.9 1164.48 14299.2C1164.34 14299.9 1164.78 14300.8 1165.68 14301C1166.43 14301.1 1167.32 14300.7 1167.47 14299.8C1174.64 14264.1 1189.88 14234.5 1212.44 14211.8C1273.25 14151 1382.31 14145.3 1519.46 14196.1C1656.9 14247.1 1806 14348.3 1939.12 14481.6C2072.38 14614.9 2173.67 14763.8 2224.62 14901.3C2275.41 15038.3 2269.73 15147.3 2208.93 15208.3C2186.22 15231 2156.64 15246.1 2120.93 15253.3C2120.19 15253.4 2119.59 15254.1 2119.74 15255C2119.59 15255.5 2120.19 15255.9 2120.93 15255.9Z" fill="white"/>
<path d="M2020.54 15350.7C2053.26 15350.7 2078.95 15341.8 2096.28 15324.5C2140.06 15280.7 2128.85 15187.5 2064.91 15062C2001.12 14937 1892.5 14794.6 1759.09 14661.2C1483.15 14385.2 1185.55 14234.1 1095.61 14324C1068.27 14351.3 1062.3 14399.4 1078.28 14462.9C1078.43 14463.7 1079.18 14464.3 1080.08 14464C1080.82 14463.8 1081.42 14462.9 1081.12 14462.2C1065.43 14399.7 1071.11 14352.7 1097.7 14326.1C1186.45 14237.3 1482.26 14388.5 1757 14663.3C1890.26 14796.5 1998.73 14938.6 2062.22 15063.4C2125.57 15187.7 2136.92 15279.7 2094.19 15322.4C2067.3 15349.3 2019.49 15354.8 1956 15338.6C1955.25 15338.4 1954.36 15338.9 1954.21 15339.6C1954.06 15340.4 1954.5 15341.2 1955.25 15341.4C1979.31 15347.7 2001.12 15350.7 2020.54 15350.7Z" fill="white"/>
<path d="M1945.09 15457.5C1957.04 15457.5 1966.31 15454.3 1972.58 15448.1C1998.43 15422.2 1970.34 15345.9 1893.4 15233.1C1816.91 15120.9 1701.27 14985.5 1567.86 14852.1C1434.45 14718.7 1299.09 14603.1 1186.9 14526.6C1074.1 14449.6 997.757 14421.5 971.911 14447.4C937.848 14481.5 998.056 14603.2 1133.11 14773.1C1133.56 14773.7 1134.61 14773.8 1135.2 14773.4C1135.8 14772.9 1135.95 14771.9 1135.5 14771.3C1003.43 14605.3 941.583 14482.1 974.003 14449.6C1025.55 14398.1 1291.03 14579.6 1565.77 14854.2C1840.51 15129 2022.03 15394.4 1970.34 15446C1937.92 15478.4 1814.67 15416.5 1648.69 15284.5C1648.09 15284 1647.04 15284 1646.59 15284.8C1646.15 15285.4 1646.15 15286.4 1646.89 15286.9C1785.53 15397.1 1892.06 15457.5 1945.09 15457.5Z" fill="white"/>
<path d="M1865.31 15553.5C1866.51 15553.5 1867.55 15553.2 1868.15 15552.5C1876.22 15544.4 1833.64 15488 1741.16 15385C1651.97 15285.5 1529.47 15157.3 1396.05 15023.9C1262.64 14890.5 1134.46 14768 1034.96 14678.8C932.022 14586.5 875.699 14543.8 867.482 14551.8C859.414 14559.9 901.993 14616.4 994.47 14719.3C1083.66 14818.8 1206.17 14947 1339.58 15080.4C1472.99 15213.8 1601.18 15336.3 1700.68 15425.5C1795.54 15510.7 1850.82 15553.5 1865.31 15553.5ZM871.067 14553.8C876.894 14553.8 904.234 14565.6 1033.16 14681.2C1132.51 14770.4 1260.7 14892.9 1394.11 15026.2C1527.52 15159.6 1650.03 15287.6 1739.07 15387.1C1869.8 15532.9 1867.85 15548.8 1866.21 15550.6C1864.57 15552.2 1848.58 15554.1 1702.77 15423.6C1603.42 15334.4 1475.23 15211.9 1341.82 15078.6C1208.41 14945.2 1085.9 14817 996.861 14717.7C866.137 14571.8 868.08 14556 869.872 14554.2C869.872 14553.9 870.32 14553.8 871.067 14553.8Z" fill="white"/>
<path d="M747.663 16380.6C854.334 16380.6 961.901 16356.4 1062 16306.8C1062.74 16306.5 1063.04 16305.6 1062.6 16304.9C1062.3 16304.1 1061.4 16303.8 1060.65 16304.3C789.495 16438.7 463.507 16385.2 249.27 16171.2C29.3555 15951.2 -20.0953 15607.2 129.154 15334.7C129.602 15333.9 129.303 15333 128.556 15332.7C127.809 15332.3 126.913 15332.6 126.614 15333.3C54.6044 15464.8 26.069 15619.4 46.3871 15768.7C67.3029 15923 136.773 16062.8 247.179 16173.2C383.131 16309.2 564.053 16380.6 747.663 16380.6Z" fill="white"/>
<path d="M821.317 16355.7C973.106 16355.7 1118.02 16302.8 1226.04 16194.8C1228.13 16192.7 1230.07 16190.7 1232.01 16188.6C1232.61 16188 1232.61 16187.1 1232.01 16186.5C1231.42 16185.9 1230.52 16185.9 1229.92 16186.5C1227.98 16188.6 1225.89 16190.6 1223.95 16192.7C986.402 16430.2 569.73 16399.9 294.986 16125.3C23.23 15853.5 -9.6377 15449.1 220.286 15204.8C220.884 15204.2 220.884 15203.4 220.286 15202.8C219.689 15202.2 218.793 15202.2 218.195 15202.8C105.698 15322.3 51.6161 15483.3 66.1078 15656.2C80.45 15828.1 160.975 15995.5 292.894 16127.4C443.936 16278.3 637.706 16355.7 821.317 16355.7Z" fill="white"/>
<path d="M926.195 16302.5C1046.91 16302.5 1157.02 16263.8 1237.39 16183.4C1247.7 16173.1 1257.56 16162 1266.67 16150.7C1267.12 16150.1 1267.12 16149 1266.38 16148.6C1265.78 16148.1 1264.73 16148.1 1264.28 16148.9C1255.32 16160.3 1245.46 16171.2 1235.3 16181.5C1034.96 16381.8 648.463 16321.3 373.72 16046.6C240.605 15913.4 153.207 15750.5 127.809 15587.6C102.412 15424.9 141.853 15281.9 238.812 15185C249.121 15174.7 260.027 15165 271.382 15156C271.979 15155.5 272.128 15154.5 271.68 15153.9C271.232 15153.3 270.186 15153.2 269.589 15153.6C258.234 15162.7 247.179 15172.4 236.87 15182.9C139.164 15280.6 99.424 15424.5 124.971 15588.1C150.518 15751.5 238.066 15915.1 371.628 16048.7C537.46 16214.5 744.078 16302.5 926.195 16302.5Z" fill="white"/>
<path d="M1071.26 16209.4C1160.3 16209.4 1237.99 16183 1293.42 16127.5C1312.09 16108.9 1327.93 16087.2 1340.33 16063.3C1340.78 16062.5 1340.48 16061.7 1339.73 16061.4C1338.98 16060.9 1338.09 16061.2 1337.79 16062C1325.54 16085.7 1309.85 16107.1 1291.47 16125.4C1128.33 16288.6 772.165 16197.9 497.421 15923.2C364.307 15790 269.888 15633.9 231.791 15483.8C193.695 15333.9 216.254 15208 295.136 15129C313.661 15110.4 335.025 15094.9 358.63 15082.6C359.377 15082.2 359.676 15081.4 359.228 15080.7C358.78 15080 357.884 15079.7 357.286 15080.1C333.382 15092.5 311.719 15108.3 293.045 15127C128.706 15291.4 219.54 15649.5 495.33 15925.3C677.746 16107.8 896.614 16209.4 1071.26 16209.4Z" fill="white"/>
<path d="M1249.49 16080C1308.06 16080 1356.91 16063.7 1391.27 16029.5C1414.28 16006.5 1429.82 15976.3 1437.14 15940C1437.29 15939.3 1436.84 15938.4 1435.94 15938.2C1435.2 15938.1 1434.3 15938.5 1434.15 15939.4C1426.98 15975.1 1411.74 16004.7 1389.18 16027.4C1263.24 16153.4 937.251 16032.4 662.507 15757.6C529.244 15624.4 427.951 15475.4 377.006 15338C326.211 15201 331.888 15091.9 392.693 15030.9C415.402 15008.2 444.983 14993.1 480.69 14986C481.437 14985.8 482.034 14985.1 481.884 14984.2C481.735 14983.4 480.988 14982.8 480.091 14983C443.788 14990.3 413.609 15005.7 390.602 15028.9C328.9 15090.6 323.074 15200.7 374.168 15338.9C425.262 15476.8 526.853 15626.2 660.266 15759.6C861.954 15961.1 1091.13 16080 1249.49 16080Z" fill="white"/>
<path d="M1430.86 15940.9C1462.68 15940.9 1488.23 15932.6 1505.86 15914.9C1533.5 15887.3 1539.33 15838.4 1522.74 15773.9C1522.59 15773.2 1521.7 15772.7 1520.95 15772.9C1520.2 15773 1519.75 15773.9 1519.9 15774.7C1536.34 15838.1 1530.66 15886 1503.77 15912.8C1486.59 15930 1461.49 15938.2 1430.41 15938.2C1301.04 15938.2 1066.03 15797.1 844.623 15575.7C711.359 15442.4 602.896 15300.3 539.402 15175.6C476.057 15051.3 464.703 14959.2 507.431 14916.5C534.024 14889.9 581.084 14884.2 643.533 14899.9C644.429 14900.1 645.176 14899.6 645.325 14898.9C645.475 14898.1 645.027 14897.2 644.28 14897.1C580.786 14881.1 532.679 14887.1 505.339 14914.4C461.566 14958.2 472.77 15051.4 536.713 15176.9C600.506 15302 709.118 15444.3 842.531 15577.7C1064.24 15799.8 1300.14 15940.9 1430.86 15940.9Z" fill="white"/>
<path d="M1601.92 15800.8C1613.88 15800.8 1623.14 15797.7 1629.41 15791.4C1663.48 15757.3 1603.27 15635.6 1468.21 15465.7C1467.76 15465.1 1466.72 15464.9 1466.12 15465.4C1465.52 15465.8 1465.37 15466.9 1465.82 15467.5C1597.89 15633.5 1659.74 15756.7 1627.32 15789.1C1621.35 15795.1 1612.68 15798 1601.48 15798C1514.82 15798 1278.78 15627.8 1035.55 15384.6C760.811 15109.8 579.292 14844.3 630.983 14792.8C663.403 14760.4 786.657 14822.2 952.639 14954.3C953.236 14954.8 954.133 14954.8 954.73 14954C955.178 14953.4 955.178 14952.4 954.431 14951.9C784.565 14816.9 662.955 14756.5 628.742 14790.7C602.897 14816.6 630.983 14892.9 707.924 15005.7C784.416 15117.9 900.051 15253.3 1033.46 15386.7C1166.88 15520.1 1302.23 15635.7 1414.43 15712.2C1499.74 15770.6 1564.43 15800.8 1601.92 15800.8Z" fill="white"/>
<path d="M1731 15688C1732.2 15688 1733.25 15687.7 1733.84 15687C1741.91 15678.9 1699.33 15622.4 1606.85 15519.5C1517.66 15420 1395.16 15291.8 1261.74 15158.4C1128.33 15025 1000.15 14902.5 900.647 14813.3C797.712 14720.9 741.24 14678.2 733.172 14686.3C725.105 14694.4 767.683 14750.8 860.161 14853.8C949.352 14953.3 1071.86 15081.4 1205.27 15214.9C1338.68 15348.3 1466.87 15470.8 1566.37 15560C1661.09 15645 1716.36 15688 1731 15688ZM736.608 14688.1C742.435 14688.1 769.775 14699.9 898.705 14815.5C998.055 14904.7 1126.24 15027.2 1259.65 15160.5C1393.07 15293.9 1515.57 15421.9 1604.61 15521.4C1735.34 15667.2 1733.39 15683.1 1731.75 15684.9C1730.11 15686.5 1714.12 15688.4 1568.31 15557.9C1468.96 15468.7 1340.78 15346.2 1207.36 15212.9C1073.95 15079.5 951.443 14951.3 862.402 14852C731.678 14706.2 733.62 14690.3 735.413 14688.5C735.563 14688.4 735.861 14688.1 736.608 14688.1Z" fill="white"/>
<path d="M1800.03 15620.3C1800.47 15620.3 1800.77 15620.2 1801.07 15619.9C1801.67 15619.3 1801.67 15618.4 1801.07 15617.8L803.537 14620.3C802.94 14619.7 802.044 14619.7 801.446 14620.3C800.848 14620.9 800.848 14621.7 801.446 14622.3L1798.98 15619.9C1799.28 15620.2 1799.58 15620.3 1800.03 15620.3Z" fill="white"/>
</g>
<g opacity="0.1">
<path d="M75.1421 6488.55C74.5445 6488.55 74.0964 6488.25 73.7976 6487.8C-61.2586 6215.45 -7.62453 5888.12 207.509 5672.98C317.915 5562.58 457.751 5493.11 612.08 5472.19C761.479 5451.87 916.106 5480.41 1047.43 5552.42C1048.17 5552.87 1048.47 5553.76 1048.02 5554.36C1047.58 5555.11 1046.68 5555.41 1046.08 5554.96C773.58 5405.71 429.515 5455.01 209.601 5675.07C-4.6367 5889.31 -58.1215 6215.3 76.4865 6486.46C76.7853 6487.21 76.4867 6488.1 75.8891 6488.4C75.5903 6488.4 75.2915 6488.55 75.1421 6488.55Z" fill="white"/>
<path d="M193.167 6658.41C192.868 6658.41 192.419 6658.27 192.121 6657.97C190.029 6656.02 188.087 6653.93 185.995 6651.99C70.3607 6536.36 13.7389 6375.6 26.4378 6199.31C39.1367 6023.17 119.812 5852.41 253.374 5718.85C385.293 5586.93 552.619 5506.4 724.577 5492.06C897.431 5477.57 1058.33 5531.65 1178 5644.15C1178.6 5644.75 1178.6 5645.64 1178 5646.24C1177.4 5646.84 1176.51 5646.84 1175.91 5646.24C931.643 5416.32 527.371 5449.03 255.465 5720.94C122.351 5854.05 42.1245 6024.07 29.2762 6199.46C16.5773 6374.86 72.9009 6534.86 187.938 6649.9C190.029 6651.99 191.972 6653.93 194.063 6655.88C194.661 6656.47 194.661 6657.37 194.063 6657.97C193.914 6658.27 193.465 6658.41 193.167 6658.41Z" fill="white"/>
<path d="M230.815 6692.63C230.516 6692.63 230.218 6692.48 229.919 6692.33C218.565 6683.21 207.509 6673.5 197.2 6663.04C-4.33818 6461.51 56.1686 6073.22 332.108 5797.28C607.897 5521.34 996.333 5460.83 1197.87 5662.37C1208.18 5672.68 1218.04 5683.74 1227.15 5695.09C1227.6 5695.69 1227.6 5696.59 1226.85 5697.18C1226.26 5697.63 1225.36 5697.63 1224.76 5696.88C1215.8 5685.53 1206.09 5674.62 1195.78 5664.32C995.437 5463.97 608.943 5524.48 334.199 5799.22C59.4552 6073.97 -1.05085 6460.46 199.293 6660.8C209.601 6671.11 220.507 6680.82 231.861 6689.79C232.459 6690.23 232.608 6691.28 232.16 6691.88C231.712 6692.48 231.263 6692.63 230.815 6692.63Z" fill="white"/>
<path d="M318.064 6766.28C317.765 6766.28 317.616 6766.28 317.317 6766.13C293.413 6753.73 271.75 6737.9 253.075 6719.22C88.7371 6554.88 179.571 6196.78 455.361 5920.99C588.923 5787.42 745.343 5692.85 896.086 5654.61C1046.98 5616.21 1173.97 5639.07 1253.75 5718.7C1272.42 5737.38 1288.26 5759.04 1300.66 5782.94C1301.11 5783.69 1300.81 5784.59 1300.06 5784.88C1299.31 5785.33 1298.42 5785.03 1298.12 5784.29C1285.87 5760.53 1270.18 5739.17 1251.8 5720.79C1172.92 5641.91 1046.83 5619.35 896.983 5657.45C746.837 5695.54 590.865 5789.96 457.602 5923.08C182.858 6197.82 92.1733 6553.99 255.316 6717.13C273.842 6735.66 295.206 6751.19 318.811 6763.44C319.558 6763.89 319.856 6764.64 319.408 6765.39C319.109 6765.98 318.661 6766.28 318.064 6766.28Z" fill="white"/>
<path d="M440.87 6862.94C440.72 6862.94 440.721 6862.94 440.571 6862.94C404.267 6855.62 374.088 6840.23 351.081 6817.08C289.379 6755.38 283.553 6645.27 334.647 6507.07C385.741 6369.18 487.332 6219.78 620.745 6086.37C754.307 5952.81 903.706 5851.22 1041.45 5800.27C1179.64 5749.18 1289.75 5755 1351.45 5816.7C1374.46 5839.71 1390 5869.89 1397.32 5906.19C1397.47 5906.94 1397.02 5907.84 1396.12 5907.99C1395.38 5908.14 1394.48 5907.69 1394.33 5906.79C1387.16 5871.09 1371.92 5841.5 1349.36 5818.8C1288.56 5757.99 1179.5 5752.31 1042.35 5803.11C904.901 5854.05 755.802 5955.35 622.688 6088.61C489.424 6221.87 388.132 6370.82 337.187 6508.27C286.392 6645.27 292.069 6754.33 352.874 6815.28C375.583 6837.99 405.163 6853.08 440.87 6860.25C441.617 6860.4 442.215 6861.15 442.065 6862.05C442.215 6862.49 441.617 6862.94 440.87 6862.94Z" fill="white"/>
<path d="M541.265 6957.66C508.547 6957.66 482.85 6948.85 465.52 6931.52C421.746 6887.74 432.951 6794.52 496.893 6669.02C560.687 6543.98 669.3 6401.6 802.712 6268.19C1078.65 5992.25 1376.25 5841.06 1466.19 5930.99C1493.53 5958.33 1499.51 6006.44 1483.52 6069.93C1483.37 6070.68 1482.62 6071.28 1481.73 6070.98C1480.98 6070.83 1480.38 6069.93 1480.68 6069.19C1496.37 6006.74 1490.69 5959.68 1464.1 5933.09C1375.36 5844.34 1079.55 5995.53 804.804 6270.28C671.54 6403.54 563.077 6545.62 499.583 6670.37C436.238 6794.67 424.883 6886.7 467.611 6929.42C494.503 6956.32 542.31 6961.84 605.805 6945.56C606.552 6945.41 607.448 6945.86 607.598 6946.6C607.747 6947.35 607.299 6948.25 606.552 6948.4C582.499 6954.67 560.687 6957.66 541.265 6957.66Z" fill="white"/>
<path d="M616.711 7064.48C604.759 7064.48 595.497 7061.34 589.222 7055.07C563.376 7029.22 591.463 6952.88 668.403 6840.08C744.895 6727.88 860.529 6592.53 993.942 6459.12C1127.36 6325.7 1262.71 6210.07 1374.91 6133.58C1487.7 6056.64 1564.05 6028.55 1589.89 6054.4C1623.96 6088.46 1563.75 6210.22 1428.69 6380.08C1428.24 6380.68 1427.2 6380.83 1426.6 6380.38C1426 6379.94 1425.85 6378.89 1426.3 6378.29C1558.37 6212.31 1620.22 6089.06 1587.8 6056.64C1536.26 6005.09 1270.78 6186.61 996.034 6461.21C721.29 6735.95 539.771 7001.43 591.463 7052.98C623.882 7085.39 747.136 7023.54 913.117 6891.48C913.715 6891.03 914.761 6891.03 915.209 6891.77C915.657 6892.37 915.658 6893.42 914.911 6893.87C776.269 7004.12 669.748 7064.48 616.711 7064.48Z" fill="white"/>
<path d="M696.49 7160.54C695.294 7160.54 694.249 7160.24 693.651 7159.5C685.584 7151.43 728.162 7094.96 820.64 6992.02C909.831 6892.52 1032.34 6764.34 1165.75 6630.93C1299.16 6497.51 1427.35 6375.01 1526.85 6285.82C1629.78 6193.49 1686.11 6150.76 1694.32 6158.83C1702.39 6166.89 1659.81 6223.37 1567.33 6326.3C1478.14 6425.8 1355.64 6553.99 1222.22 6687.4C1088.81 6820.81 960.626 6943.32 861.127 7032.51C766.259 7117.67 710.981 7160.54 696.49 7160.54ZM1690.74 6160.77C1684.91 6160.77 1657.57 6172.57 1528.64 6288.21C1429.29 6377.4 1301.11 6499.9 1167.69 6633.17C1034.28 6766.58 911.773 6894.61 822.731 6994.11C692.008 7139.93 693.95 7155.76 695.593 7157.56C697.236 7159.2 713.222 7161.14 859.035 7030.57C958.385 6941.38 1086.57 6818.87 1219.98 6685.61C1353.39 6552.19 1475.9 6424.01 1564.94 6324.66C1695.67 6178.85 1693.72 6163.01 1691.93 6161.22C1691.93 6160.92 1691.48 6160.77 1690.74 6160.77Z" fill="white"/>
<path d="M1814.14 7987.61C1707.47 7987.61 1599.9 7963.41 1499.81 7913.81C1499.06 7913.51 1498.76 7912.61 1499.21 7911.87C1499.51 7911.12 1500.4 7910.82 1501.15 7911.27C1772.31 8045.73 2098.3 7992.24 2312.53 7778.16C2532.45 7558.24 2581.9 7214.18 2432.65 6941.67C2432.2 6940.93 2432.5 6940.03 2433.25 6939.73C2433.99 6939.28 2434.89 6939.58 2435.19 6940.33C2507.2 7071.8 2535.73 7226.43 2515.42 7375.68C2494.5 7530.01 2425.03 7669.84 2314.63 7780.25C2178.67 7916.2 1997.75 7987.61 1814.14 7987.61Z" fill="white"/>
<path d="M1740.49 7962.66C1588.7 7962.66 1443.78 7909.78 1335.77 7801.76C1333.67 7799.67 1331.73 7797.73 1329.79 7795.64C1329.19 7795.04 1329.19 7794.14 1329.79 7793.54C1330.39 7792.95 1331.28 7792.95 1331.88 7793.54C1333.82 7795.64 1335.92 7797.58 1337.86 7799.67C1575.4 8037.21 1992.07 8006.88 2266.82 7732.29C2538.57 7460.53 2571.44 7056.11 2341.52 6811.85C2340.92 6811.25 2340.92 6810.35 2341.52 6809.75C2342.11 6809.16 2343.01 6809.16 2343.61 6809.75C2456.11 6929.27 2510.19 7090.33 2495.7 7263.18C2481.35 7435.14 2400.83 7602.46 2268.91 7734.38C2117.87 7885.27 1924.1 7962.66 1740.49 7962.66Z" fill="white"/>
<path d="M1635.61 7909.48C1514.89 7909.48 1404.79 7870.78 1324.41 7790.41C1314.1 7780.1 1304.24 7769.04 1295.13 7757.69C1294.68 7757.09 1294.68 7756.05 1295.43 7755.6C1296.03 7755.15 1297.07 7755.15 1297.52 7755.9C1306.48 7767.25 1316.34 7778.16 1326.5 7788.47C1526.85 7988.81 1913.34 7928.3 2188.08 7653.56C2321.2 7520.44 2408.6 7357.45 2433.99 7194.61C2459.39 7031.91 2419.95 6888.94 2322.99 6791.98C2312.68 6781.67 2301.78 6771.96 2290.42 6762.99C2289.82 6762.55 2289.68 6761.5 2290.12 6760.9C2290.57 6760.31 2291.62 6760.16 2292.22 6760.6C2303.57 6769.72 2314.62 6779.43 2324.93 6789.89C2422.64 6887.59 2462.38 7031.46 2436.83 7195.05C2411.29 7358.5 2323.74 7522.09 2190.18 7655.65C2024.34 7821.48 1817.73 7909.48 1635.61 7909.48Z" fill="white"/>
<path d="M1490.54 7816.41C1401.5 7816.41 1323.81 7789.96 1268.39 7734.54C1249.71 7715.86 1233.88 7694.2 1221.48 7670.29C1221.03 7669.55 1221.33 7668.65 1222.07 7668.35C1222.82 7667.9 1223.72 7668.2 1224.02 7668.95C1236.27 7692.7 1251.95 7714.07 1270.33 7732.44C1433.47 7895.59 1789.64 7804.9 2064.38 7530.16C2197.5 7397.04 2291.92 7240.92 2330.01 7090.78C2368.11 6940.93 2345.55 6814.99 2266.67 6735.96C2248.14 6717.43 2226.78 6701.89 2203.17 6689.64C2202.43 6689.19 2202.13 6688.45 2202.58 6687.7C2203.02 6686.95 2203.92 6686.65 2204.52 6687.1C2228.42 6699.5 2250.08 6715.34 2268.76 6734.01C2433.1 6898.35 2342.26 7256.46 2066.47 7532.25C1884.06 7714.82 1665.19 7816.41 1490.54 7816.41Z" fill="white"/>
<path d="M1312.31 7687.02C1253.75 7687.02 1204.89 7670.74 1170.53 7636.53C1147.52 7613.52 1131.99 7583.34 1124.67 7547.04C1124.52 7546.29 1124.96 7545.39 1125.86 7545.24C1126.61 7545.09 1127.5 7545.54 1127.65 7546.44C1134.82 7582.15 1150.06 7611.73 1172.62 7634.43C1298.57 7760.38 1624.55 7639.36 1899.3 7364.62C2032.56 7231.36 2133.85 7082.41 2184.8 6944.96C2235.59 6807.96 2229.92 6698.9 2169.11 6637.95C2146.4 6615.24 2116.82 6600.15 2081.11 6592.98C2080.37 6592.83 2079.77 6592.08 2079.92 6591.19C2080.07 6590.44 2080.82 6589.84 2081.71 6589.99C2118.02 6597.31 2148.19 6612.7 2171.2 6635.86C2232.9 6697.56 2238.73 6807.66 2187.64 6945.86C2136.54 7083.75 2034.95 7233.15 1901.54 7366.56C1699.85 7568.1 1470.67 7687.02 1312.31 7687.02Z" fill="white"/>
<path d="M1130.94 7547.94C1099.12 7547.94 1073.57 7539.57 1055.94 7521.94C1028.3 7494.3 1022.48 7445.45 1039.06 7380.91C1039.21 7380.16 1040.11 7379.71 1040.85 7379.86C1041.6 7380.01 1042.05 7380.91 1041.9 7381.65C1025.47 7445.15 1031.14 7492.96 1058.03 7519.85C1075.22 7537.03 1100.31 7545.25 1131.39 7545.25C1260.77 7545.25 1495.77 7404.06 1717.18 7182.66C1850.44 7049.39 1958.91 6907.31 2022.4 6782.57C2085.75 6658.27 2097.1 6566.24 2054.37 6523.51C2027.78 6496.92 1980.72 6491.24 1918.27 6506.93C1917.37 6507.08 1916.63 6506.63 1916.48 6505.88C1916.33 6505.13 1916.78 6504.24 1917.52 6504.09C1981.02 6488.1 2029.12 6494.08 2056.46 6521.42C2100.24 6565.19 2089.03 6658.42 2025.09 6783.91C1961.3 6908.96 1852.69 7051.33 1719.27 7184.75C1497.57 7406.75 1261.66 7547.94 1130.94 7547.94Z" fill="white"/>
<path d="M959.879 7407.8C947.927 7407.8 938.665 7404.66 932.39 7398.39C898.327 7364.32 958.534 7242.56 1093.59 7072.7C1094.04 7072.1 1095.09 7071.95 1095.68 7072.4C1096.28 7072.85 1096.43 7073.89 1095.98 7074.49C963.913 7240.47 902.062 7363.72 934.481 7396.14C940.457 7402.12 949.123 7404.96 960.328 7404.96C1046.98 7404.96 1283.03 7234.79 1526.25 6991.57C1800.99 6716.83 1982.51 6451.35 1930.82 6399.81C1898.4 6367.39 1775.15 6429.24 1609.16 6561.31C1608.57 6561.75 1607.67 6561.75 1607.07 6561.01C1606.63 6560.41 1606.63 6559.36 1607.37 6558.92C1777.24 6423.86 1898.85 6363.5 1933.06 6397.71C1958.91 6423.56 1930.82 6499.9 1853.88 6612.7C1777.39 6724.9 1661.75 6860.25 1528.34 6993.66C1394.93 7127.08 1259.57 7242.71 1147.37 7319.2C1062.07 7377.62 997.378 7407.8 959.879 7407.8Z" fill="white"/>
<path d="M830.799 7295C829.604 7295 828.558 7294.7 827.961 7293.95C819.893 7285.89 862.472 7229.41 954.949 7126.48C1044.14 7026.98 1166.65 6898.8 1300.06 6765.38C1433.47 6631.97 1561.66 6509.46 1661.16 6420.27C1764.09 6327.94 1820.56 6285.22 1828.63 6293.28C1836.7 6301.35 1794.12 6357.82 1701.64 6460.76C1612.45 6560.26 1489.95 6688.44 1356.53 6821.86C1223.12 6955.27 1094.94 7077.78 995.437 7166.97C900.718 7251.97 845.44 7295 830.799 7295ZM1825.2 6295.08C1819.37 6295.08 1792.03 6306.88 1663.1 6422.51C1563.75 6511.7 1435.56 6634.21 1302.15 6767.47C1168.74 6900.89 1046.23 7028.92 957.19 7128.42C826.467 7274.23 828.409 7290.07 830.052 7291.86C831.696 7293.51 847.681 7295.45 993.494 7164.87C1092.84 7075.68 1221.03 6953.18 1354.44 6819.91C1487.85 6686.5 1610.36 6558.32 1699.4 6458.97C1830.13 6313.15 1828.18 6297.32 1826.39 6295.52C1826.24 6295.38 1825.94 6295.08 1825.2 6295.08Z" fill="white"/>
<path d="M761.778 7227.33C761.33 7227.33 761.031 7227.18 760.732 7226.88C760.135 7226.28 760.135 7225.38 760.732 7224.79L1758.27 6227.25C1758.86 6226.66 1759.76 6226.66 1760.36 6227.25C1760.96 6227.85 1760.96 6228.75 1760.36 6229.34L762.824 7226.88C762.525 7227.18 762.227 7227.33 761.778 7227.33Z" fill="white"/>
</g>
<g opacity="0.1">
<path d="M75.1421 11933.5C74.5445 11933.5 74.0964 11933.3 73.7976 11932.8C-61.2586 11660.4 -7.62453 11333.1 207.509 11118C317.915 11007.6 457.751 10938.1 612.08 10917.2C761.479 10896.9 916.106 10925.4 1047.43 10997.4C1048.17 10997.9 1048.47 10998.8 1048.02 10999.4C1047.58 11000.1 1046.68 11000.4 1046.08 11000C773.58 10850.7 429.515 10900 209.601 11120.1C-4.6367 11334.3 -58.1215 11660.3 76.4865 11931.5C76.7853 11932.2 76.4867 11933.1 75.8891 11933.4C75.5903 11933.4 75.2915 11933.5 75.1421 11933.5Z" fill="white"/>
<path d="M193.167 12103.4C192.868 12103.4 192.419 12103.3 192.121 12103C190.029 12101 188.087 12098.9 185.995 12097C70.3607 11981.4 13.7389 11820.6 26.4378 11644.3C39.1367 11468.2 119.812 11297.4 253.374 11163.8C385.293 11031.9 552.619 10951.4 724.577 10937.1C897.431 10922.6 1058.33 10976.7 1178 11089.1C1178.6 11089.7 1178.6 11090.6 1178 11091.2C1177.4 11091.8 1176.51 11091.8 1175.91 11091.2C931.643 10861.3 527.371 10894 255.465 11165.9C122.351 11299.1 42.1245 11469.1 29.2762 11644.5C16.5773 11819.9 72.9009 11979.9 187.938 12094.9C190.029 12097 191.972 12098.9 194.063 12100.9C194.661 12101.5 194.661 12102.4 194.063 12103C193.914 12103.3 193.465 12103.4 193.167 12103.4Z" fill="white"/>
<path d="M230.815 12137.6C230.516 12137.6 230.218 12137.5 229.919 12137.3C218.565 12128.2 207.509 12118.5 197.2 12108C-4.33818 11906.5 56.1686 11518.2 332.108 11242.3C607.897 10966.3 996.333 10905.8 1197.87 11107.4C1208.18 11117.7 1218.04 11128.7 1227.15 11140.1C1227.6 11140.7 1227.6 11141.6 1226.85 11142.2C1226.26 11142.6 1225.36 11142.6 1224.76 11141.9C1215.8 11130.5 1206.09 11119.6 1195.78 11109.3C995.437 10909 608.943 10969.5 334.199 11244.2C59.4552 11519 -1.05085 11905.5 199.293 12105.8C209.601 12116.1 220.507 12125.8 231.861 12134.8C232.459 12135.2 232.608 12136.3 232.16 12136.9C231.712 12137.5 231.263 12137.6 230.815 12137.6Z" fill="white"/>
<path d="M318.064 12211.3C317.765 12211.3 317.616 12211.3 317.317 12211.1C293.413 12198.7 271.75 12182.9 253.075 12164.2C88.7371 11999.9 179.571 11641.8 455.361 11366C588.923 11232.4 745.343 11137.9 896.086 11099.6C1046.98 11061.2 1173.97 11084.1 1253.75 11163.7C1272.42 11182.4 1288.26 11204 1300.66 11227.9C1301.11 11228.7 1300.81 11229.6 1300.06 11229.9C1299.31 11230.3 1298.42 11230 1298.12 11229.3C1285.87 11205.5 1270.18 11184.2 1251.8 11165.8C1172.92 11086.9 1046.83 11064.4 896.983 11102.4C746.837 11140.5 590.865 11235 457.602 11368.1C182.858 11642.8 92.1733 11999 255.316 12162.1C273.842 12180.7 295.206 12196.2 318.811 12208.4C319.558 12208.9 319.856 12209.6 319.408 12210.4C319.109 12211 318.661 12211.3 318.064 12211.3Z" fill="white"/>
<path d="M440.87 12307.9C440.72 12307.9 440.721 12307.9 440.571 12307.9C404.267 12300.6 374.088 12285.2 351.081 12262.1C289.379 12200.4 283.553 12090.3 334.647 11952.1C385.741 11814.2 487.332 11664.8 620.745 11531.4C754.307 11397.8 903.706 11296.2 1041.45 11245.3C1179.64 11194.2 1289.75 11200 1351.45 11261.7C1374.46 11284.7 1390 11314.9 1397.32 11351.2C1397.47 11351.9 1397.02 11352.8 1396.12 11353C1395.38 11353.1 1394.48 11352.7 1394.33 11351.8C1387.16 11316.1 1371.92 11286.5 1349.36 11263.8C1288.56 11203 1179.5 11197.3 1042.35 11248.1C904.901 11299.1 755.802 11400.3 622.688 11533.6C489.424 11666.9 388.132 11815.8 337.187 11953.3C286.392 12090.3 292.069 12199.3 352.874 12260.3C375.583 12283 405.163 12298.1 440.87 12305.3C441.617 12305.4 442.215 12306.1 442.065 12307C442.215 12307.5 441.617 12307.9 440.87 12307.9Z" fill="white"/>
<path d="M541.265 12402.7C508.547 12402.7 482.85 12393.8 465.52 12376.5C421.746 12332.7 432.951 12239.5 496.893 12114C560.687 11989 669.3 11846.6 802.712 11713.2C1078.65 11437.2 1376.25 11286.1 1466.19 11376C1493.53 11403.3 1499.51 11451.4 1483.52 11514.9C1483.37 11515.7 1482.62 11516.3 1481.73 11516C1480.98 11515.8 1480.38 11514.9 1480.68 11514.2C1496.37 11451.7 1490.69 11404.7 1464.1 11378.1C1375.36 11289.3 1079.55 11440.5 804.804 11715.3C671.54 11848.5 563.077 11990.6 499.583 12115.4C436.238 12239.7 424.883 12331.7 467.611 12374.4C494.503 12401.3 542.31 12406.8 605.805 12390.6C606.552 12390.4 607.448 12390.9 607.598 12391.6C607.747 12392.4 607.299 12393.2 606.552 12393.4C582.499 12399.7 560.687 12402.7 541.265 12402.7Z" fill="white"/>
<path d="M616.711 12509.5C604.759 12509.5 595.497 12506.3 589.222 12500.1C563.376 12474.2 591.463 12397.9 668.403 12285.1C744.895 12172.9 860.529 12037.5 993.942 11904.1C1127.36 11770.7 1262.71 11655.1 1374.91 11578.6C1487.7 11501.6 1564.05 11473.5 1589.89 11499.4C1623.96 11533.5 1563.75 11655.2 1428.69 11825.1C1428.24 11825.7 1427.2 11825.8 1426.6 11825.4C1426 11824.9 1425.85 11823.9 1426.3 11823.3C1558.37 11657.3 1620.22 11534.1 1587.8 11501.6C1536.26 11450.1 1270.78 11631.6 996.034 11906.2C721.29 12181 539.771 12446.4 591.463 12498C623.882 12530.4 747.136 12468.5 913.117 12336.5C913.715 12336 914.761 12336 915.209 12336.8C915.657 12337.4 915.658 12338.4 914.911 12338.9C776.269 12449.1 669.748 12509.5 616.711 12509.5Z" fill="white"/>
<path d="M696.49 12605.5C695.294 12605.5 694.249 12605.2 693.651 12604.5C685.584 12596.4 728.162 12540 820.64 12437C909.831 12337.5 1032.34 12209.3 1165.75 12075.9C1299.16 11942.5 1427.35 11820 1526.85 11730.8C1629.78 11638.5 1686.11 11595.8 1694.32 11603.8C1702.39 11611.9 1659.81 11668.4 1567.33 11771.3C1478.14 11870.8 1355.64 11999 1222.22 12132.4C1088.81 12265.8 960.626 12388.3 861.127 12477.5C766.259 12562.7 710.981 12605.5 696.49 12605.5ZM1690.74 11605.8C1684.91 11605.8 1657.57 11617.6 1528.64 11733.2C1429.29 11822.4 1301.11 11944.9 1167.69 12078.2C1034.28 12211.6 911.773 12339.6 822.731 12439.1C692.008 12584.9 693.95 12600.8 695.593 12602.6C697.236 12604.2 713.222 12606.1 859.035 12475.6C958.385 12386.4 1086.57 12263.9 1219.98 12130.6C1353.39 11997.2 1475.9 11869 1564.94 11769.7C1695.67 11623.8 1693.72 11608 1691.93 11606.2C1691.93 11605.9 1691.48 11605.8 1690.74 11605.8Z" fill="white"/>
<path d="M1814.14 13432.6C1707.47 13432.6 1599.9 13408.4 1499.81 13358.8C1499.06 13358.5 1498.76 13357.6 1499.21 13356.9C1499.51 13356.1 1500.4 13355.8 1501.15 13356.3C1772.31 13490.7 2098.3 13437.2 2312.53 13223.2C2532.45 13003.2 2581.9 12659.2 2432.65 12386.7C2432.2 12385.9 2432.5 12385 2433.25 12384.7C2433.99 12384.3 2434.89 12384.6 2435.19 12385.3C2507.2 12516.8 2535.73 12671.4 2515.42 12820.7C2494.5 12975 2425.03 13114.8 2314.63 13225.2C2178.67 13361.2 1997.75 13432.6 1814.14 13432.6Z" fill="white"/>
<path d="M1740.49 13407.7C1588.7 13407.7 1443.78 13354.8 1335.77 13246.8C1333.67 13244.7 1331.73 13242.7 1329.79 13240.6C1329.19 13240 1329.19 13239.1 1329.79 13238.5C1330.39 13237.9 1331.28 13237.9 1331.88 13238.5C1333.82 13240.6 1335.92 13242.6 1337.86 13244.7C1575.4 13482.2 1992.07 13451.9 2266.82 13177.3C2538.57 12905.5 2571.44 12501.1 2341.52 12256.8C2340.92 12256.2 2340.92 12255.4 2341.52 12254.8C2342.11 12254.2 2343.01 12254.2 2343.61 12254.8C2456.11 12374.3 2510.19 12535.3 2495.7 12708.2C2481.35 12880.1 2400.83 13047.5 2268.91 13179.4C2117.87 13330.3 1924.1 13407.7 1740.49 13407.7Z" fill="white"/>
<path d="M1635.61 13354.5C1514.89 13354.5 1404.79 13315.8 1324.41 13235.4C1314.1 13225.1 1304.24 13214 1295.13 13202.7C1294.68 13202.1 1294.68 13201 1295.43 13200.6C1296.03 13200.1 1297.07 13200.1 1297.52 13200.9C1306.48 13212.3 1316.34 13223.2 1326.5 13233.5C1526.85 13433.8 1913.34 13373.3 2188.08 13098.6C2321.2 12965.4 2408.6 12802.5 2433.99 12639.6C2459.39 12476.9 2419.95 12333.9 2322.99 12237C2312.68 12226.7 2301.78 12217 2290.42 12208C2289.82 12207.5 2289.68 12206.5 2290.12 12205.9C2290.57 12205.3 2291.62 12205.2 2292.22 12205.6C2303.57 12214.7 2314.62 12224.4 2324.93 12234.9C2422.64 12332.6 2462.38 12476.5 2436.83 12640.1C2411.29 12803.5 2323.74 12967.1 2190.18 13100.7C2024.34 13266.5 1817.73 13354.5 1635.61 13354.5Z" fill="white"/>
<path d="M1490.54 13261.4C1401.5 13261.4 1323.81 13235 1268.39 13179.5C1249.71 13160.9 1233.88 13139.2 1221.48 13115.3C1221.03 13114.5 1221.33 13113.7 1222.07 13113.4C1222.82 13112.9 1223.72 13113.2 1224.02 13114C1236.27 13137.7 1251.95 13159.1 1270.33 13177.4C1433.47 13340.6 1789.64 13249.9 2064.38 12975.2C2197.5 12842 2291.92 12685.9 2330.01 12535.8C2368.11 12385.9 2345.55 12260 2266.67 12181C2248.14 12162.4 2226.78 12146.9 2203.17 12134.6C2202.43 12134.2 2202.13 12133.4 2202.58 12132.7C2203.02 12132 2203.92 12131.7 2204.52 12132.1C2228.42 12144.5 2250.08 12160.3 2268.76 12179C2433.1 12343.4 2342.26 12701.5 2066.47 12977.3C1884.06 13159.8 1665.19 13261.4 1490.54 13261.4Z" fill="white"/>
<path d="M1312.31 13132C1253.75 13132 1204.89 13115.7 1170.53 13081.5C1147.52 13058.5 1131.99 13028.3 1124.67 12992C1124.52 12991.3 1124.96 12990.4 1125.86 12990.2C1126.61 12990.1 1127.5 12990.5 1127.65 12991.4C1134.82 13027.1 1150.06 13056.7 1172.62 13079.4C1298.57 13205.4 1624.55 13084.4 1899.3 12809.6C2032.56 12676.4 2133.85 12527.4 2184.8 12390C2235.59 12253 2229.92 12143.9 2169.11 12082.9C2146.4 12060.2 2116.82 12045.1 2081.11 12038C2080.37 12037.8 2079.77 12037.1 2079.92 12036.2C2080.07 12035.4 2080.82 12034.8 2081.71 12035C2118.02 12042.3 2148.19 12057.7 2171.2 12080.9C2232.9 12142.6 2238.73 12252.7 2187.64 12390.9C2136.54 12528.8 2034.95 12678.2 1901.54 12811.6C1699.85 13013.1 1470.67 13132 1312.31 13132Z" fill="white"/>
<path d="M1130.94 12992.9C1099.12 12992.9 1073.57 12984.6 1055.94 12966.9C1028.3 12939.3 1022.48 12890.4 1039.06 12825.9C1039.21 12825.2 1040.11 12824.7 1040.85 12824.9C1041.6 12825 1042.05 12825.9 1041.9 12826.7C1025.47 12890.1 1031.14 12938 1058.03 12964.8C1075.22 12982 1100.31 12990.2 1131.39 12990.2C1260.77 12990.2 1495.77 12849.1 1717.18 12627.7C1850.44 12494.4 1958.91 12352.3 2022.4 12227.6C2085.75 12103.3 2097.1 12011.2 2054.37 11968.5C2027.78 11941.9 1980.72 11936.2 1918.27 11951.9C1917.37 11952.1 1916.63 11951.6 1916.48 11950.9C1916.33 11950.1 1916.78 11949.2 1917.52 11949.1C1981.02 11933.1 2029.12 11939.1 2056.46 11966.4C2100.24 12010.2 2089.03 12103.4 2025.09 12228.9C1961.3 12354 1852.69 12496.3 1719.27 12629.7C1497.57 12851.8 1261.66 12992.9 1130.94 12992.9Z" fill="white"/>
<path d="M959.879 12852.8C947.927 12852.8 938.665 12849.7 932.39 12843.4C898.327 12809.3 958.534 12687.6 1093.59 12517.7C1094.04 12517.1 1095.09 12516.9 1095.68 12517.4C1096.28 12517.8 1096.43 12518.9 1095.98 12519.5C963.913 12685.5 902.062 12808.7 934.481 12841.1C940.457 12847.1 949.123 12850 960.328 12850C1046.98 12850 1283.03 12679.8 1526.25 12436.6C1800.99 12161.8 1982.51 11896.3 1930.82 11844.8C1898.4 11812.4 1775.15 11874.2 1609.16 12006.3C1608.57 12006.8 1607.67 12006.8 1607.07 12006C1606.63 12005.4 1606.63 12004.4 1607.37 12003.9C1777.24 11868.9 1898.85 11808.5 1933.06 11842.7C1958.91 11868.6 1930.82 11944.9 1853.88 12057.7C1777.39 12169.9 1661.75 12305.3 1528.34 12438.7C1394.93 12572.1 1259.57 12687.7 1147.37 12764.2C1062.07 12822.6 997.378 12852.8 959.879 12852.8Z" fill="white"/>
<path d="M830.799 12740C829.604 12740 828.558 12739.7 827.961 12739C819.893 12730.9 862.472 12674.4 954.949 12571.5C1044.14 12472 1166.65 12343.8 1300.06 12210.4C1433.47 12077 1561.66 11954.5 1661.16 11865.3C1764.09 11772.9 1820.56 11730.2 1828.63 11738.3C1836.7 11746.4 1794.12 11802.8 1701.64 11905.8C1612.45 12005.3 1489.95 12133.4 1356.53 12266.9C1223.12 12400.3 1094.94 12522.8 995.437 12612C900.718 12697 845.44 12740 830.799 12740ZM1825.2 11740.1C1819.37 11740.1 1792.03 11751.9 1663.1 11867.5C1563.75 11956.7 1435.56 12079.2 1302.15 12212.5C1168.74 12345.9 1046.23 12473.9 957.19 12573.4C826.467 12719.2 828.409 12735.1 830.052 12736.9C831.696 12738.5 847.681 12740.4 993.494 12609.9C1092.84 12520.7 1221.03 12398.2 1354.44 12264.9C1487.85 12131.5 1610.36 12003.3 1699.4 11904C1830.13 11758.2 1828.18 11742.3 1826.39 11740.5C1826.24 11740.4 1825.94 11740.1 1825.2 11740.1Z" fill="white"/>
<path d="M761.778 12672.3C761.33 12672.3 761.031 12672.2 760.732 12671.9C760.135 12671.3 760.135 12670.4 760.732 12669.8L1758.27 11672.3C1758.86 11671.7 1759.76 11671.7 1760.36 11672.3C1760.96 11672.9 1760.96 11673.7 1760.36 11674.3L762.824 12671.9C762.525 12672.2 762.227 12672.3 761.778 12672.3Z" fill="white"/>
</g>
<g opacity="0.1">
<path d="M2486.66 3755.55C2487.26 3755.55 2487.71 3755.25 2488.01 3754.8C2623.06 3482.45 2569.43 3155.12 2354.29 2939.98C2243.89 2829.58 2104.05 2760.11 1949.72 2739.19C1800.33 2718.87 1645.7 2747.41 1514.38 2819.42C1513.63 2819.87 1513.33 2820.76 1513.78 2821.36C1514.23 2822.11 1515.12 2822.41 1515.72 2821.96C1788.22 2672.71 2132.29 2722.01 2352.2 2942.07C2566.44 3156.31 2619.93 3482.3 2485.32 3753.46C2485.02 3754.21 2485.32 3755.1 2485.91 3755.4C2486.21 3755.4 2486.51 3755.55 2486.66 3755.55Z" fill="white"/>
<path d="M2368.64 3925.41C2368.94 3925.41 2369.38 3925.27 2369.68 3924.97C2371.77 3923.02 2373.72 3920.93 2375.81 3918.99C2491.44 3803.36 2548.06 3642.6 2535.37 3466.31C2522.67 3290.17 2441.99 3119.41 2308.43 2985.85C2176.51 2853.93 2009.18 2773.4 1837.23 2759.06C1664.37 2744.57 1503.47 2798.65 1383.8 2911.15C1383.21 2911.75 1383.21 2912.64 1383.8 2913.24C1384.4 2913.84 1385.3 2913.84 1385.89 2913.24C1630.16 2683.32 2034.43 2716.03 2306.34 2987.94C2439.45 3121.05 2519.68 3291.07 2532.53 3466.46C2545.23 3641.86 2488.9 3801.86 2373.87 3916.9C2371.77 3918.99 2369.83 3920.93 2367.74 3922.88C2367.14 3923.47 2367.14 3924.37 2367.74 3924.97C2367.89 3925.27 2368.34 3925.41 2368.64 3925.41Z" fill="white"/>
<path d="M2330.99 3959.63C2331.29 3959.63 2331.59 3959.48 2331.88 3959.33C2343.24 3950.21 2354.29 3940.5 2364.6 3930.04C2566.14 3728.51 2505.64 3340.22 2229.7 3064.28C1953.91 2788.34 1565.47 2727.83 1363.93 2929.37C1353.62 2939.68 1343.76 2950.74 1334.65 2962.09C1334.2 2962.69 1334.2 2963.59 1334.95 2964.18C1335.55 2964.63 1336.44 2964.63 1337.04 2963.88C1346 2952.53 1355.71 2941.62 1366.02 2931.32C1566.37 2730.97 1952.86 2791.48 2227.6 3066.22C2502.35 3340.97 2562.85 3727.46 2362.51 3927.8C2352.2 3938.11 2341.3 3947.82 2329.94 3956.79C2329.35 3957.23 2329.2 3958.28 2329.64 3958.88C2330.09 3959.48 2330.54 3959.63 2330.99 3959.63Z" fill="white"/>
<path d="M2243.74 4033.28C2244.04 4033.28 2244.19 4033.28 2244.49 4033.13C2268.39 4020.73 2290.05 4004.9 2308.73 3986.22C2473.07 3821.88 2382.23 3463.78 2106.44 3187.99C1972.88 3054.42 1816.46 2959.85 1665.72 2921.61C1514.82 2883.21 1387.84 2906.07 1308.06 2985.7C1289.38 3004.38 1273.55 3026.04 1261.15 3049.94C1260.7 3050.69 1261 3051.59 1261.74 3051.88C1262.49 3052.33 1263.39 3052.03 1263.69 3051.29C1275.94 3027.53 1291.62 3006.17 1310 2987.79C1388.88 2908.91 1514.97 2886.35 1664.82 2924.45C1814.97 2962.54 1970.94 3056.96 2104.2 3190.08C2378.95 3464.82 2469.63 3820.99 2306.49 3984.13C2287.96 4002.66 2266.6 4018.19 2242.99 4030.44C2242.25 4030.89 2241.95 4031.64 2242.4 4032.39C2242.69 4032.98 2243.14 4033.28 2243.74 4033.28Z" fill="white"/>
<path d="M2120.93 4129.94C2121.08 4129.94 2121.08 4129.94 2121.23 4129.94C2157.54 4122.62 2187.72 4107.23 2210.72 4084.08C2272.42 4022.38 2278.25 3912.27 2227.16 3774.07C2176.06 3636.18 2074.47 3486.78 1941.06 3353.37C1807.5 3219.81 1658.1 3118.22 1520.35 3067.27C1382.16 3016.18 1272.05 3022 1210.35 3083.7C1187.34 3106.71 1171.81 3136.89 1164.48 3173.19C1164.34 3173.94 1164.78 3174.84 1165.68 3174.99C1166.43 3175.14 1167.32 3174.69 1167.47 3173.79C1174.64 3138.09 1189.88 3108.5 1212.44 3085.8C1273.25 3024.99 1382.31 3019.31 1519.46 3070.11C1656.9 3121.05 1806 3222.35 1939.12 3355.61C2072.38 3488.87 2173.67 3637.82 2224.62 3775.27C2275.41 3912.27 2269.73 4021.33 2208.93 4082.28C2186.22 4104.99 2156.64 4120.08 2120.93 4127.25C2120.19 4127.4 2119.59 4128.15 2119.74 4129.05C2119.59 4129.49 2120.19 4129.94 2120.93 4129.94Z" fill="white"/>
<path d="M2020.54 4224.66C2053.26 4224.66 2078.95 4215.85 2096.28 4198.52C2140.06 4154.74 2128.85 4061.52 2064.91 3936.02C2001.12 3810.98 1892.5 3668.6 1759.09 3535.19C1483.15 3259.25 1185.55 3108.06 1095.61 3197.99C1068.27 3225.33 1062.3 3273.44 1078.28 3336.93C1078.43 3337.68 1079.18 3338.28 1080.08 3337.98C1080.82 3337.83 1081.42 3336.93 1081.12 3336.19C1065.43 3273.74 1071.11 3226.68 1097.7 3200.09C1186.45 3111.34 1482.26 3262.53 1757 3537.28C1890.26 3670.54 1998.73 3812.62 2062.22 3937.37C2125.57 4061.67 2136.92 4153.7 2094.19 4196.42C2067.3 4223.32 2019.49 4228.84 1956 4212.56C1955.25 4212.41 1954.36 4212.86 1954.21 4213.6C1954.06 4214.35 1954.5 4215.25 1955.25 4215.4C1979.31 4221.67 2001.12 4224.66 2020.54 4224.66Z" fill="white"/>
<path d="M1945.09 4331.48C1957.04 4331.48 1966.31 4328.34 1972.58 4322.07C1998.43 4296.22 1970.34 4219.88 1893.4 4107.08C1816.91 3994.88 1701.27 3859.53 1567.86 3726.12C1434.45 3592.7 1299.09 3477.07 1186.9 3400.58C1074.1 3323.64 997.757 3295.55 971.911 3321.4C937.848 3355.46 998.056 3477.22 1133.11 3647.08C1133.56 3647.68 1134.61 3647.83 1135.2 3647.38C1135.8 3646.94 1135.95 3645.89 1135.5 3645.29C1003.43 3479.31 941.583 3356.06 974.003 3323.64C1025.55 3272.09 1291.03 3453.61 1565.77 3728.21C1840.51 4002.95 2022.03 4268.43 1970.34 4319.98C1937.92 4352.39 1814.67 4290.54 1648.69 4158.48C1648.09 4158.03 1647.04 4158.03 1646.59 4158.77C1646.15 4159.37 1646.15 4160.42 1646.89 4160.87C1785.53 4271.12 1892.06 4331.48 1945.09 4331.48Z" fill="white"/>
<path d="M1865.31 4427.54C1866.51 4427.54 1867.55 4427.24 1868.15 4426.5C1876.22 4418.43 1833.64 4361.96 1741.16 4259.02C1651.97 4159.52 1529.47 4031.34 1396.05 3897.93C1262.64 3764.51 1134.46 3642.01 1034.96 3552.82C932.022 3460.49 875.699 3417.76 867.482 3425.83C859.414 3433.89 901.993 3490.37 994.47 3593.3C1083.66 3692.8 1206.17 3820.99 1339.58 3954.4C1472.99 4087.81 1601.18 4210.32 1700.68 4299.51C1795.54 4384.67 1850.82 4427.54 1865.31 4427.54ZM871.067 3427.77C876.894 3427.77 904.234 3439.57 1033.16 3555.21C1132.51 3644.4 1260.7 3766.9 1394.11 3900.17C1527.52 4033.58 1650.03 4161.61 1739.07 4261.11C1869.8 4406.93 1867.85 4422.76 1866.21 4424.56C1864.57 4426.2 1848.58 4428.14 1702.77 4297.57C1603.42 4208.38 1475.23 4085.87 1341.82 3952.61C1208.41 3819.19 1085.9 3691.01 996.861 3591.66C866.137 3445.85 868.08 3430.01 869.872 3428.22C869.872 3427.92 870.32 3427.77 871.067 3427.77Z" fill="white"/>
<path d="M747.663 5254.61C854.334 5254.61 961.901 5230.41 1062 5180.81C1062.74 5180.51 1063.04 5179.61 1062.6 5178.87C1062.3 5178.12 1061.4 5177.82 1060.65 5178.27C789.495 5312.73 463.507 5259.24 249.27 5045.16C29.3555 4825.24 -20.0953 4481.18 129.154 4208.67C129.602 4207.93 129.303 4207.03 128.556 4206.73C127.809 4206.28 126.913 4206.58 126.614 4207.33C54.6044 4338.8 26.069 4493.43 46.3871 4642.68C67.3029 4797.01 136.773 4936.84 247.179 5047.25C383.131 5183.2 564.053 5254.61 747.663 5254.61Z" fill="white"/>
<path d="M821.317 5229.66C973.106 5229.66 1118.02 5176.78 1226.04 5068.76C1228.13 5066.67 1230.07 5064.73 1232.01 5062.64C1232.61 5062.04 1232.61 5061.14 1232.01 5060.54C1231.42 5059.95 1230.52 5059.95 1229.92 5060.54C1227.98 5062.64 1225.89 5064.58 1223.95 5066.67C986.402 5304.21 569.73 5273.88 294.986 4999.29C23.23 4727.53 -9.6377 4323.11 220.286 4078.85C220.884 4078.25 220.884 4077.35 220.286 4076.75C219.689 4076.16 218.793 4076.16 218.195 4076.75C105.698 4196.27 51.6161 4357.33 66.1078 4530.18C80.45 4702.14 160.975 4869.46 292.894 5001.38C443.936 5152.27 637.706 5229.66 821.317 5229.66Z" fill="white"/>
<path d="M926.195 5176.48C1046.91 5176.48 1157.02 5137.78 1237.39 5057.41C1247.7 5047.1 1257.56 5036.04 1266.67 5024.69C1267.12 5024.09 1267.12 5023.05 1266.38 5022.6C1265.78 5022.15 1264.73 5022.15 1264.28 5022.9C1255.32 5034.25 1245.46 5045.16 1235.3 5055.47C1034.96 5255.81 648.463 5195.3 373.72 4920.56C240.605 4787.44 153.207 4624.45 127.809 4461.61C102.412 4298.91 141.853 4155.94 238.812 4058.98C249.121 4048.67 260.027 4038.96 271.382 4029.99C271.979 4029.55 272.128 4028.5 271.68 4027.9C271.232 4027.31 270.186 4027.16 269.589 4027.6C258.234 4036.72 247.179 4046.43 236.87 4056.89C139.164 4154.59 99.424 4298.46 124.971 4462.05C150.518 4625.5 238.066 4789.09 371.628 4922.65C537.46 5088.48 744.078 5176.48 926.195 5176.48Z" fill="white"/>
<path d="M1071.26 5083.41C1160.3 5083.41 1237.99 5056.96 1293.42 5001.54C1312.09 4982.86 1327.93 4961.2 1340.33 4937.29C1340.78 4936.55 1340.48 4935.65 1339.73 4935.35C1338.98 4934.9 1338.09 4935.2 1337.79 4935.95C1325.54 4959.7 1309.85 4981.07 1291.47 4999.44C1128.33 5162.59 772.165 5071.9 497.421 4797.16C364.307 4664.04 269.888 4507.92 231.791 4357.78C193.695 4207.93 216.254 4081.99 295.136 4002.96C313.661 3984.43 335.025 3968.89 358.63 3956.64C359.377 3956.19 359.676 3955.45 359.228 3954.7C358.78 3953.95 357.884 3953.65 357.286 3954.1C333.382 3966.5 311.719 3982.34 293.045 4001.01C128.706 4165.35 219.54 4523.46 495.33 4799.25C677.746 4981.82 896.614 5083.41 1071.26 5083.41Z" fill="white"/>
<path d="M1249.49 4954.02C1308.06 4954.02 1356.91 4937.74 1391.27 4903.53C1414.28 4880.52 1429.82 4850.34 1437.14 4814.04C1437.29 4813.29 1436.84 4812.39 1435.94 4812.24C1435.2 4812.09 1434.3 4812.54 1434.15 4813.44C1426.98 4849.15 1411.74 4878.73 1389.18 4901.43C1263.24 5027.38 937.251 4906.36 662.507 4631.62C529.244 4498.36 427.951 4349.41 377.006 4211.96C326.211 4074.96 331.888 3965.9 392.693 3904.95C415.402 3882.24 444.983 3867.15 480.69 3859.98C481.437 3859.83 482.034 3859.08 481.884 3858.19C481.735 3857.44 480.988 3856.84 480.091 3856.99C443.788 3864.31 413.609 3879.7 390.602 3902.86C328.9 3964.56 323.074 4074.66 374.168 4212.86C425.262 4350.75 526.853 4500.15 660.266 4633.56C861.954 4835.1 1091.13 4954.02 1249.49 4954.02Z" fill="white"/>
<path d="M1430.86 4814.94C1462.68 4814.94 1488.23 4806.57 1505.86 4788.94C1533.5 4761.3 1539.33 4712.45 1522.74 4647.91C1522.59 4647.16 1521.7 4646.71 1520.95 4646.86C1520.2 4647.01 1519.75 4647.91 1519.9 4648.65C1536.34 4712.15 1530.66 4759.96 1503.77 4786.85C1486.59 4804.03 1461.49 4812.25 1430.41 4812.25C1301.04 4812.25 1066.03 4671.06 844.623 4449.66C711.359 4316.39 602.896 4174.31 539.402 4049.57C476.057 3925.27 464.703 3833.24 507.431 3790.51C534.024 3763.92 581.084 3758.24 643.533 3773.93C644.429 3774.08 645.176 3773.63 645.325 3772.88C645.475 3772.13 645.027 3771.24 644.28 3771.09C580.786 3755.1 532.679 3761.08 505.339 3788.42C461.566 3832.19 472.77 3925.42 536.713 4050.91C600.506 4175.96 709.118 4318.33 842.531 4451.75C1064.24 4673.75 1300.14 4814.94 1430.86 4814.94Z" fill="white"/>
<path d="M1601.92 4674.8C1613.88 4674.8 1623.14 4671.66 1629.41 4665.39C1663.48 4631.32 1603.27 4509.56 1468.21 4339.7C1467.76 4339.1 1466.72 4338.95 1466.12 4339.4C1465.52 4339.85 1465.37 4340.89 1465.82 4341.49C1597.89 4507.47 1659.74 4630.72 1627.32 4663.14C1621.35 4669.12 1612.68 4671.96 1601.48 4671.96C1514.82 4671.96 1278.78 4501.79 1035.55 4258.57C760.811 3983.83 579.292 3718.35 630.983 3666.81C663.403 3634.39 786.657 3696.24 952.639 3828.31C953.236 3828.75 954.133 3828.75 954.73 3828.01C955.178 3827.41 955.178 3826.36 954.431 3825.92C784.565 3690.86 662.955 3630.5 628.742 3664.71C602.897 3690.56 630.983 3766.9 707.924 3879.7C784.416 3991.9 900.051 4127.25 1033.46 4260.66C1166.88 4394.08 1302.23 4509.71 1414.43 4586.2C1499.74 4644.62 1564.43 4674.8 1601.92 4674.8Z" fill="white"/>
<path d="M1731 4562C1732.2 4562 1733.25 4561.7 1733.84 4560.95C1741.91 4552.89 1699.33 4496.41 1606.85 4393.48C1517.66 4293.98 1395.16 4165.8 1261.74 4032.38C1128.33 3898.97 1000.15 3776.46 900.647 3687.27C797.712 3594.94 741.24 3552.22 733.172 3560.28C725.105 3568.35 767.683 3624.82 860.161 3727.76C949.352 3827.26 1071.86 3955.44 1205.27 4088.86C1338.68 4222.27 1466.87 4344.78 1566.37 4433.97C1661.09 4518.97 1716.36 4562 1731 4562ZM736.608 3562.08C742.435 3562.08 769.775 3573.88 898.705 3689.51C998.055 3778.7 1126.24 3901.21 1259.65 4034.47C1393.07 4167.89 1515.57 4295.92 1604.61 4395.42C1735.34 4541.23 1733.39 4557.07 1731.75 4558.86C1730.11 4560.51 1714.12 4562.45 1568.31 4431.87C1468.96 4342.68 1340.78 4220.18 1207.36 4086.91C1073.95 3953.5 951.443 3825.32 862.402 3725.97C731.678 3580.15 733.62 3564.32 735.413 3562.52C735.563 3562.38 735.861 3562.08 736.608 3562.08Z" fill="white"/>
<path d="M1800.03 4494.33C1800.47 4494.33 1800.77 4494.18 1801.07 4493.88C1801.67 4493.28 1801.67 4492.38 1801.07 4491.79L803.537 3494.25C802.94 3493.66 802.044 3493.66 801.446 3494.25C800.848 3494.85 800.848 3495.75 801.446 3496.34L1798.98 4493.88C1799.28 4494.18 1799.58 4494.33 1800.03 4494.33Z" fill="white"/>
</g>
<g opacity="0.1">
<path d="M75.1421 1022.74C74.5445 1022.74 74.0964 1022.45 73.7976 1022C-61.2586 749.644 -7.62453 422.312 207.509 207.179C317.915 96.773 457.751 27.3028 612.08 6.38701C761.479 -13.9312 916.106 14.6039 1047.43 86.6139C1048.17 87.0621 1048.47 87.9586 1048.02 88.5562C1047.58 89.3032 1046.68 89.6019 1046.08 89.1537C773.58 -60.0954 429.515 -10.7938 209.601 209.27C-4.6367 423.508 -58.1215 749.495 76.4865 1020.65C76.7853 1021.4 76.4867 1022.3 75.8891 1022.6C75.5903 1022.6 75.2915 1022.74 75.1421 1022.74Z" fill="white"/>
<path d="M193.167 1192.61C192.868 1192.61 192.419 1192.46 192.121 1192.16C190.029 1190.22 188.087 1188.13 185.995 1186.19C70.3607 1070.55 13.7389 909.799 26.4378 733.509C39.1367 557.368 119.812 386.605 253.374 253.043C385.293 121.124 552.619 40.5985 724.577 26.2563C897.431 11.7646 1058.33 65.8469 1178 178.344C1178.6 178.941 1178.6 179.838 1178 180.436C1177.4 181.033 1176.51 181.033 1175.91 180.436C931.643 -49.4887 527.371 -16.7705 255.465 255.135C122.351 388.249 42.1245 558.264 29.2762 733.658C16.5773 909.052 72.9009 1069.06 187.938 1184.09C190.029 1186.19 191.972 1188.13 194.063 1190.07C194.661 1190.67 194.661 1191.56 194.063 1192.16C193.914 1192.46 193.465 1192.61 193.167 1192.61Z" fill="white"/>
<path d="M230.815 1226.82C230.516 1226.82 230.218 1226.67 229.919 1226.52C218.565 1217.41 207.509 1207.7 197.2 1197.24C-4.33818 995.701 56.1686 607.414 332.108 331.475C607.897 55.5365 996.333 -4.96986 1197.87 196.569C1208.18 206.877 1218.04 217.933 1227.15 229.287C1227.6 229.884 1227.6 230.781 1226.85 231.379C1226.26 231.827 1225.36 231.827 1224.76 231.08C1215.8 219.725 1206.09 208.819 1195.78 198.511C995.437 -1.83253 608.943 58.6738 334.199 333.418C59.4552 608.161 -1.05085 994.655 199.293 1195C209.601 1205.31 220.507 1215.02 231.861 1223.98C232.459 1224.43 232.608 1225.48 232.16 1226.07C231.712 1226.67 231.263 1226.82 230.815 1226.82Z" fill="white"/>
<path d="M318.064 1300.48C317.765 1300.48 317.616 1300.48 317.317 1300.33C293.413 1287.93 271.75 1272.09 253.075 1253.42C88.7371 1089.08 179.571 730.971 455.361 455.182C588.923 321.619 745.343 227.05 896.086 188.804C1046.98 150.409 1173.97 173.267 1253.75 252.896C1272.42 271.571 1288.26 293.234 1300.66 317.138C1301.11 317.885 1300.81 318.781 1300.06 319.08C1299.31 319.528 1298.42 319.229 1298.12 318.482C1285.87 294.728 1270.18 273.364 1251.8 254.988C1172.92 176.105 1046.83 153.546 896.983 191.643C746.837 229.739 590.865 324.159 457.602 457.273C182.858 732.017 92.1733 1088.18 255.316 1251.33C273.842 1269.85 295.206 1285.39 318.811 1297.64C319.558 1298.09 319.856 1298.83 319.408 1299.58C319.109 1300.18 318.661 1300.48 318.064 1300.48Z" fill="white"/>
<path d="M440.87 1397.14C440.72 1397.14 440.721 1397.14 440.571 1397.14C404.267 1389.82 374.088 1374.43 351.081 1351.27C289.379 1289.57 283.553 1179.46 334.647 1041.27C385.741 903.375 487.332 753.977 620.745 620.564C754.307 487.002 903.706 385.411 1041.45 334.466C1179.64 283.372 1289.75 289.198 1351.45 350.9C1374.46 373.907 1390 404.086 1397.32 440.389C1397.47 441.136 1397.02 442.033 1396.12 442.182C1395.38 442.332 1394.48 441.883 1394.33 440.987C1387.16 405.281 1371.92 375.7 1349.36 352.991C1288.56 292.186 1179.5 286.509 1042.35 337.305C904.901 388.249 755.802 489.542 622.688 622.805C489.424 756.068 388.132 905.019 337.187 1042.47C286.392 1179.46 292.069 1288.52 352.874 1349.48C375.583 1372.19 405.163 1387.28 440.87 1394.45C441.617 1394.6 442.215 1395.34 442.065 1396.24C442.215 1396.69 441.617 1397.14 440.87 1397.14Z" fill="white"/>
<path d="M541.265 1491.86C508.547 1491.86 482.85 1483.04 465.52 1465.71C421.746 1421.94 432.951 1328.71 496.893 1203.22C560.687 1078.17 669.3 935.794 802.712 802.381C1078.65 526.442 1376.25 375.251 1466.19 465.189C1493.53 492.529 1499.51 540.635 1483.52 604.13C1483.37 604.876 1482.62 605.474 1481.73 605.175C1480.98 605.026 1480.38 604.13 1480.68 603.383C1496.37 540.934 1490.69 493.873 1464.1 467.281C1375.36 378.538 1079.55 529.729 804.804 804.473C671.54 937.736 563.077 1079.81 499.583 1204.56C436.238 1328.86 424.883 1420.89 467.611 1463.62C494.503 1490.51 542.31 1496.04 605.805 1479.75C606.552 1479.6 607.448 1480.05 607.598 1480.8C607.747 1481.55 607.299 1482.44 606.552 1482.59C582.499 1488.87 560.687 1491.86 541.265 1491.86Z" fill="white"/>
<path d="M616.711 1598.67C604.759 1598.67 595.497 1595.54 589.222 1589.26C563.376 1563.42 591.463 1487.07 668.403 1374.28C744.895 1262.08 860.529 1126.72 993.942 993.312C1127.36 859.899 1262.71 744.264 1374.91 667.772C1487.7 590.832 1564.05 562.745 1589.89 588.591C1623.96 622.654 1563.75 744.414 1428.69 914.28C1428.24 914.877 1427.2 915.027 1426.6 914.579C1426 914.13 1425.85 913.085 1426.3 912.487C1558.37 746.505 1620.22 623.252 1587.8 590.832C1536.26 539.29 1270.78 720.809 996.034 995.403C721.29 1270.15 539.771 1535.63 591.463 1587.17C623.882 1619.59 747.136 1557.74 913.117 1425.67C913.715 1425.22 914.761 1425.22 915.209 1425.97C915.657 1426.57 915.658 1427.61 914.911 1428.06C776.269 1538.32 669.748 1598.67 616.711 1598.67Z" fill="white"/>
<path d="M696.49 1694.74C695.294 1694.74 694.249 1694.44 693.651 1693.69C685.584 1685.63 728.162 1629.15 820.64 1526.22C909.831 1426.72 1032.34 1298.53 1165.75 1165.12C1299.16 1031.71 1427.35 909.202 1526.85 820.011C1629.78 727.683 1686.11 684.955 1694.32 693.022C1702.39 701.09 1659.81 757.562 1567.33 860.498C1478.14 959.997 1355.64 1088.18 1222.22 1221.59C1088.81 1355.01 960.626 1477.51 861.127 1566.7C766.259 1651.86 710.981 1694.74 696.49 1694.74ZM1690.74 694.964C1684.91 694.964 1657.57 706.767 1528.64 822.401C1429.29 911.592 1301.11 1034.1 1167.69 1167.36C1034.28 1300.78 911.773 1428.81 822.731 1528.31C692.008 1674.12 693.95 1689.96 695.593 1691.75C697.236 1693.39 713.222 1695.34 859.035 1564.76C958.385 1475.57 1086.57 1353.06 1219.98 1219.8C1353.39 1086.39 1475.9 958.204 1564.94 858.854C1695.67 713.042 1693.72 697.205 1691.93 695.412C1691.93 695.114 1691.48 694.964 1690.74 694.964Z" fill="white"/>
<path d="M1814.14 2521.81C1707.47 2521.81 1599.9 2497.61 1499.81 2448.01C1499.06 2447.71 1498.76 2446.81 1499.21 2446.06C1499.51 2445.32 1500.4 2445.02 1501.15 2445.47C1772.31 2579.92 2098.3 2526.44 2312.53 2312.35C2532.45 2092.44 2581.9 1748.37 2432.65 1475.87C2432.2 1475.12 2432.5 1474.23 2433.25 1473.93C2433.99 1473.48 2434.89 1473.78 2435.19 1474.53C2507.2 1606 2535.73 1760.62 2515.42 1909.87C2494.5 2064.2 2425.03 2204.04 2314.63 2314.44C2178.67 2450.4 1997.75 2521.81 1814.14 2521.81Z" fill="white"/>
<path d="M1740.49 2496.86C1588.7 2496.86 1443.78 2443.97 1335.77 2335.96C1333.67 2333.86 1331.73 2331.92 1329.79 2329.83C1329.19 2329.23 1329.19 2328.34 1329.79 2327.74C1330.39 2327.14 1331.28 2327.14 1331.88 2327.74C1333.82 2329.83 1335.92 2331.77 1337.86 2333.86C1575.4 2571.41 1992.07 2541.08 2266.82 2266.49C2538.57 1994.73 2571.44 1590.31 2341.52 1346.04C2340.92 1345.44 2340.92 1344.55 2341.52 1343.95C2342.11 1343.35 2343.01 1343.35 2343.61 1343.95C2456.11 1463.47 2510.19 1624.52 2495.7 1797.37C2481.35 1969.33 2400.83 2136.66 2268.91 2268.58C2117.87 2419.47 1924.1 2496.86 1740.49 2496.86Z" fill="white"/>
<path d="M1635.61 2443.67C1514.89 2443.67 1404.79 2404.98 1324.41 2324.6C1314.1 2314.29 1304.24 2303.24 1295.13 2291.88C1294.68 2291.29 1294.68 2290.24 1295.43 2289.79C1296.03 2289.35 1297.07 2289.35 1297.52 2290.09C1306.48 2301.45 1316.34 2312.35 1326.5 2322.66C1526.85 2523 1913.34 2462.5 2188.08 2187.75C2321.2 2054.64 2408.6 1891.65 2433.99 1728.8C2459.39 1566.11 2419.95 1423.13 2322.99 1326.17C2312.68 1315.86 2301.78 1306.15 2290.42 1297.19C2289.82 1296.74 2289.68 1295.7 2290.12 1295.1C2290.57 1294.5 2291.62 1294.35 2292.22 1294.8C2303.57 1303.91 2314.62 1313.62 2324.93 1324.08C2422.64 1421.79 2462.38 1565.66 2436.83 1729.25C2411.29 1892.69 2323.74 2056.28 2190.18 2189.85C2024.34 2355.68 1817.73 2443.67 1635.61 2443.67Z" fill="white"/>
<path d="M1490.54 2350.6C1401.5 2350.6 1323.81 2324.16 1268.39 2268.73C1249.71 2250.06 1233.88 2228.39 1221.48 2204.49C1221.03 2203.74 1221.33 2202.85 1222.07 2202.55C1222.82 2202.1 1223.72 2202.4 1224.02 2203.15C1236.27 2226.9 1251.95 2248.26 1270.33 2266.64C1433.47 2429.78 1789.64 2339.1 2064.38 2064.35C2197.5 1931.24 2291.92 1775.12 2330.01 1624.97C2368.11 1475.13 2345.55 1349.18 2266.67 1270.15C2248.14 1251.63 2226.78 1236.09 2203.17 1223.84C2202.43 1223.39 2202.13 1222.64 2202.58 1221.9C2203.02 1221.15 2203.92 1220.85 2204.52 1221.3C2228.42 1233.7 2250.08 1249.53 2268.76 1268.21C2433.1 1432.55 2342.26 1790.66 2066.47 2066.45C1884.06 2249.01 1665.19 2350.6 1490.54 2350.6Z" fill="white"/>
<path d="M1312.31 2221.22C1253.75 2221.22 1204.89 2204.93 1170.53 2170.72C1147.52 2147.71 1131.99 2117.54 1124.67 2081.23C1124.52 2080.48 1124.96 2079.59 1125.86 2079.44C1126.61 2079.29 1127.5 2079.74 1127.65 2080.63C1134.82 2116.34 1150.06 2145.92 1172.62 2168.63C1298.57 2294.57 1624.55 2173.56 1899.3 1898.82C2032.56 1765.55 2133.85 1616.6 2184.8 1479.16C2235.59 1342.16 2229.92 1233.1 2169.11 1172.14C2146.4 1149.43 2116.82 1134.34 2081.11 1127.17C2080.37 1127.02 2079.77 1126.28 2079.92 1125.38C2080.07 1124.63 2080.82 1124.04 2081.71 1124.19C2118.02 1131.51 2148.19 1146.89 2171.2 1170.05C2232.9 1231.75 2238.73 1341.86 2187.64 1480.05C2136.54 1617.95 2034.95 1767.35 1901.54 1900.76C1699.85 2102.3 1470.67 2221.22 1312.31 2221.22Z" fill="white"/>
<path d="M1130.94 2082.13C1099.12 2082.13 1073.57 2073.76 1055.94 2056.14C1028.3 2028.5 1022.48 1979.64 1039.06 1915.1C1039.21 1914.36 1040.11 1913.91 1040.85 1914.06C1041.6 1914.21 1042.05 1915.1 1041.9 1915.85C1025.47 1979.34 1031.14 2027.15 1058.03 2054.04C1075.22 2071.22 1100.31 2079.44 1131.39 2079.44C1260.77 2079.44 1495.77 1938.26 1717.18 1716.85C1850.44 1583.59 1958.91 1441.51 2022.4 1316.76C2085.75 1192.46 2097.1 1100.43 2054.37 1057.71C2027.78 1031.11 1980.72 1025.43 1918.27 1041.12C1917.37 1041.27 1916.63 1040.82 1916.48 1040.08C1916.33 1039.33 1916.78 1038.43 1917.52 1038.28C1981.02 1022.3 2029.12 1028.27 2056.46 1055.61C2100.24 1099.39 2089.03 1192.61 2025.09 1318.11C1961.3 1443.15 1852.69 1585.53 1719.27 1718.94C1497.57 1940.95 1261.66 2082.13 1130.94 2082.13Z" fill="white"/>
<path d="M959.879 1941.99C947.927 1941.99 938.665 1938.86 932.39 1932.58C898.327 1898.52 958.534 1776.76 1093.59 1606.89C1094.04 1606.29 1095.09 1606.14 1095.68 1606.59C1096.28 1607.04 1096.43 1608.09 1095.98 1608.68C963.913 1774.67 902.062 1897.92 934.481 1930.34C940.457 1936.32 949.123 1939.15 960.328 1939.15C1046.98 1939.15 1283.03 1768.99 1526.25 1525.77C1800.99 1251.02 1982.51 985.544 1930.82 934.001C1898.4 901.582 1775.15 963.433 1609.16 1095.5C1608.57 1095.95 1607.67 1095.95 1607.07 1095.2C1606.63 1094.6 1606.63 1093.56 1607.37 1093.11C1777.24 958.054 1898.85 897.697 1933.06 931.91C1958.91 957.756 1930.82 1034.1 1853.88 1146.89C1777.39 1259.09 1661.75 1394.45 1528.34 1527.86C1394.93 1661.27 1259.57 1776.91 1147.37 1853.4C1062.07 1911.81 997.378 1941.99 959.879 1941.99Z" fill="white"/>
<path d="M830.799 1829.2C829.604 1829.2 828.558 1828.9 827.961 1828.15C819.893 1820.08 862.472 1763.61 954.949 1660.67C1044.14 1561.17 1166.65 1432.99 1300.06 1299.58C1433.47 1166.17 1561.66 1043.66 1661.16 954.468C1764.09 862.14 1820.56 819.412 1828.63 827.479C1836.7 835.547 1794.12 892.019 1701.64 994.955C1612.45 1094.45 1489.95 1222.64 1356.53 1356.05C1223.12 1489.46 1094.94 1611.97 995.437 1701.16C900.718 1786.17 845.44 1829.2 830.799 1829.2ZM1825.2 829.272C1819.37 829.272 1792.03 841.074 1663.1 956.709C1563.75 1045.9 1435.56 1168.41 1302.15 1301.67C1168.74 1435.08 1046.23 1563.12 957.19 1662.62C826.467 1808.43 828.409 1824.27 830.052 1826.06C831.696 1827.7 847.681 1829.64 993.494 1699.07C1092.84 1609.88 1221.03 1487.37 1354.44 1354.11C1487.85 1220.7 1610.36 1092.51 1699.4 993.162C1830.13 847.349 1828.18 831.513 1826.39 829.72C1826.24 829.571 1825.94 829.272 1825.2 829.272Z" fill="white"/>
<path d="M761.778 1761.52C761.33 1761.52 761.031 1761.37 760.732 1761.07C760.135 1760.48 760.135 1759.58 760.732 1758.98L1758.27 761.448C1758.86 760.851 1759.76 760.851 1760.36 761.448C1760.96 762.046 1760.96 762.942 1760.36 763.54L762.824 1761.07C762.525 1761.37 762.227 1761.52 761.778 1761.52Z" fill="white"/>
</g>
</svg>
