<svg xmlns="http://www.w3.org/2000/svg" width="120" height="120" viewBox="0 0 120 120" fill="none">
  <path d="M28.1493 101.331L26.6831 109.226H24.079L24.6538 106.148H22.1788L21.604 109.226H19L20.4662 101.331H23.0703L22.5424 104.174H25.0174L25.5453 101.331H28.1493Z" fill="white"/>
  <path d="M39.6432 101.331L35.6433 106.828L35.1976 109.226H32.5936L33.0393 106.828L31.0804 101.331H34.0598L34.8692 104.13L36.7108 101.331H39.6432Z" fill="white"/>
  <path d="M54.7851 103.294L54.6092 104.275H57.1898L56.8379 106.137H54.2573L54.0462 107.252H56.9786L56.615 109.226H51.0785L52.5447 101.331H58.0812L57.7176 103.294H54.7851Z" fill="white"/>
  <path d="M64.0794 107.352H66.5896L66.2377 109.226H61.1234L62.5897 101.331H65.1937L64.0794 107.352Z" fill="white"/>
  <path d="M73.4734 109.304C72.7696 109.304 72.1518 109.166 71.62 108.891C71.0883 108.616 70.6777 108.23 70.3884 107.732C70.0991 107.226 69.9544 106.65 69.9544 106.003C69.9544 105.059 70.1577 104.227 70.5643 103.505C70.9788 102.777 71.5536 102.212 72.2886 101.811C73.0315 101.402 73.8839 101.197 74.8458 101.197C75.5652 101.197 76.1908 101.335 76.7225 101.61C77.2621 101.877 77.6766 102.26 77.9659 102.758C78.2552 103.249 78.3999 103.818 78.3999 104.464C78.3999 105.401 78.1927 106.237 77.7782 106.973C77.3716 107.709 76.7929 108.282 76.0422 108.69C75.2993 109.099 74.443 109.304 73.4734 109.304ZM73.8722 106.996C74.2788 106.996 74.6307 106.895 74.9279 106.695C75.2328 106.486 75.4635 106.215 75.6199 105.881C75.7763 105.539 75.8545 105.171 75.8545 104.777C75.8545 104.368 75.7372 104.052 75.5026 103.829C75.2759 103.598 74.9474 103.483 74.5173 103.483C74.1107 103.483 73.7549 103.583 73.4499 103.784C73.1449 103.985 72.9103 104.256 72.7461 104.598C72.5897 104.933 72.5115 105.297 72.5115 105.691C72.5115 106.1 72.6249 106.419 72.8517 106.65C73.0863 106.88 73.4264 106.996 73.8722 106.996Z" fill="white"/>
  <path d="M85.0635 109.304C84.3597 109.304 83.7419 109.166 83.2102 108.891C82.6784 108.616 82.2679 108.23 81.9785 107.732C81.6892 107.226 81.5445 106.65 81.5445 106.003C81.5445 105.059 81.7478 104.227 82.1545 103.505C82.5689 102.777 83.1437 102.212 83.8788 101.811C84.6217 101.402 85.474 101.197 86.4359 101.197C87.1553 101.197 87.7809 101.335 88.3127 101.61C88.8522 101.877 89.2667 102.26 89.556 102.758C89.8454 103.249 89.99 103.818 89.99 104.464C89.99 105.401 89.7828 106.237 89.3684 106.973C88.9617 107.709 88.383 108.282 87.6323 108.69C86.8894 109.099 86.0332 109.304 85.0635 109.304ZM85.4623 106.996C85.8689 106.996 86.2208 106.895 86.518 106.695C86.823 106.486 87.0537 106.215 87.2101 105.881C87.3665 105.539 87.4447 105.171 87.4447 104.777C87.4447 104.368 87.3274 104.052 87.0928 103.829C86.866 103.598 86.5375 103.483 86.1075 103.483C85.7008 103.483 85.345 103.583 85.04 103.784C84.7351 103.985 84.5005 104.256 84.3362 104.598C84.1798 104.933 84.1016 105.297 84.1016 105.691C84.1016 106.1 84.215 106.419 84.4418 106.65C84.6764 106.88 85.0166 106.996 85.4623 106.996Z" fill="white"/>
  <path d="M100.571 101.331L100.208 103.294H98.0026L96.9 109.226H94.2959L95.3985 103.294H93.2168L93.5804 101.331H100.571Z" fill="white"/>
  <path fill-rule="evenodd" clip-rule="evenodd" d="M48.2585 105.401C48.5713 104.992 48.7746 104.539 48.8684 104.041C48.9075 103.818 48.9271 103.624 48.9271 103.461C48.9271 102.799 48.6964 102.279 48.235 101.9C47.7736 101.521 47.1011 101.331 46.2175 101.331H42.5812L42.2126 103.316H44.8216H45.5606C46.022 103.316 46.2526 103.494 46.2526 103.851C46.2526 103.888 46.2448 103.951 46.2292 104.041C46.1354 104.524 45.8226 104.765 45.2908 104.765H44.5518H41.9433L41.115 109.226H43.719L44.1882 106.717H45.2204C45.8929 106.717 46.4872 106.598 47.0034 106.36C47.5273 106.122 47.9457 105.802 48.2585 105.401Z" fill="white"/>
  <path d="M42.3061 80.9333H32.173L33.1863 70.8002L34.1997 60.6672L35.213 50.5341L36.2263 40.401L46.3594 40.401H56.4925H66.6256H76.7587H86.8918L85.8784 50.5341L84.8651 60.6672L83.8518 70.8002L82.8385 80.9333H72.7054H62.5723L52.4392 80.9333H42.3061Z" fill="url(#paint0_linear_275_21098)"/>
  <path d="M68.6522 20.1348L78.7853 20.1348H88.9184L87.9051 30.2679L77.772 30.2679H67.6389H57.5058H47.3727L37.2396 30.2679L38.2529 20.1348H48.386H58.5191H68.6522Z" fill="url(#paint1_linear_275_21098)"/>
  <path d="M41.2929 91.0648L42.3062 80.9317L43.3195 70.7986H33.1864H23.0533L24.0666 60.6655H34.1997H44.3328L45.3461 50.5324L46.3594 40.3993L47.3727 30.2662H57.5058L56.4925 40.3993L55.4792 50.5324L54.4659 60.6655H64.599H74.7321L73.7188 70.7986L72.7055 80.9317L71.6921 91.0648H61.5591L62.5724 80.9317L63.5857 70.7986H53.4526L52.4393 80.9317L51.426 91.0648H41.2929Z" fill="white"/>
  <path d="M75.7454 50.5324H85.8785H96.0116L97.0249 40.3993H86.8918L76.7587 40.3993L77.772 30.2662L78.7853 20.1331L79.7986 10H69.6655L68.6522 20.1331L67.6389 30.2662L66.6256 40.3993L65.6123 50.5324H75.7454Z" fill="white"/>
  <defs>
    <linearGradient id="paint0_linear_275_21098" x1="32.173" y1="20.1348" x2="92.9962" y2="25.039" gradientUnits="userSpaceOnUse">
      <stop stop-color="#612BFC"/>
      <stop offset="1" stop-color="#FF00C7"/>
    </linearGradient>
    <linearGradient id="paint1_linear_275_21098" x1="32.173" y1="20.1348" x2="92.9962" y2="25.039" gradientUnits="userSpaceOnUse">
      <stop stop-color="#612BFC"/>
      <stop offset="1" stop-color="#FF00C7"/>
    </linearGradient>
  </defs>
</svg>