<svg xmlns="http://www.w3.org/2000/svg" width="17" height="16" viewBox="0 0 17 16" fill="none">
  <g clip-path="url(#clip0_930_3385)">
    <rect x="0.666992" width="16" height="16" rx="8" fill="#F7931A"/>
    <path d="M12.3462 7.00679C12.505 5.86866 11.6581 5.28636 10.4935 4.86287L10.864 3.32772L9.93762 3.11597L9.56707 4.59819C9.32886 4.54525 9.06417 4.49232 8.82596 4.41291L9.19652 2.90423L8.27013 2.66602L7.89958 4.20117C7.68783 4.14823 6.02034 3.72474 6.02034 3.72474L5.78212 4.70406C5.78212 4.70406 6.47029 4.86287 6.44383 4.86287C6.81438 4.96874 6.89379 5.20696 6.86732 5.39224L5.83506 9.5742C5.78212 9.68008 5.67625 9.86535 5.41157 9.78595C5.41157 9.81242 4.7234 9.62714 4.7234 9.62714L4.27344 10.6859C4.27344 10.6859 5.94093 11.1094 6.15268 11.1623L5.75565 12.6974L6.68204 12.9357L7.05259 11.4005C7.31728 11.4799 7.55549 11.5328 7.7937 11.5858L7.42315 13.0945L8.34953 13.3327L8.74656 11.7975C10.3346 12.0887 11.5257 11.9828 12.0286 10.5535C12.4256 9.38893 12.0021 8.72722 11.1816 8.30373C11.7639 8.2508 12.2139 7.85377 12.3462 7.00679ZM10.2288 9.99769C9.93762 11.1623 8.00545 10.5271 7.37021 10.3682L7.87311 8.3302C8.50834 8.48901 10.5199 8.78016 10.2288 9.99769ZM10.5199 7.00679C10.2552 8.06552 8.64068 7.53616 8.11132 7.40381L8.56128 5.55104C9.09064 5.65692 10.7846 5.89513 10.5199 7.00679Z" fill="white"/>
  </g>
  <defs>
    <clipPath id="clip0_930_3385">
      <rect width="16" height="16" fill="white" transform="translate(0.666992)"/>
    </clipPath>
  </defs>
</svg>